<svg width="74" height="49" viewBox="0 0 74 49" fill="none" xmlns="http://www.w3.org/2000/svg">
<g clip-path="url(#clip0_554_61)">
<path d="M3.46552 3.31836V40.5295H12.3171C12.4893 40.1403 12.7278 39.781 12.9996 39.5072C13.5927 38.9081 14.4745 38.5391 15.3134 38.5391C16.2 38.5391 16.9869 38.9136 17.6271 39.5072C17.9351 39.7926 18.1586 40.1458 18.3132 40.5295H46.8835V3.31836H3.46552Z" fill="white"/>
<path d="M-7.38216e-05 0C0.312173 0.00914999 0.625023 0.02562 0.93727 0.02562C16.8316 0.02684 32.726 0.02684 48.6198 0.02684C48.9296 0.02684 49.2394 0.02684 49.6387 0.02684V8.40457H50.5615C54.9444 8.40457 59.3274 8.41555 63.7103 8.39115C64.2708 8.3881 64.5564 8.56744 64.8234 9.0658C67.7749 14.5802 70.7567 20.0787 73.7191 25.587C73.8622 25.853 73.9878 26.172 73.9884 26.4666C74.0035 32.2567 73.9993 38.0462 73.9975 43.8364C73.9975 43.9303 73.9752 44.0242 73.951 44.2127C73.3048 44.2127 72.6634 44.2127 72.0214 44.2127C70.2874 44.2127 68.5534 44.2268 66.8195 44.203C66.3943 44.1975 66.2077 44.3457 66.0307 44.7367C64.7938 47.4732 62.657 48.9902 59.6891 49.0006C56.6899 49.0104 54.5307 47.4896 53.2848 44.7239C53.1012 44.3158 52.891 44.2054 52.4797 44.206C42.582 44.2152 32.6843 44.2152 22.7861 44.206C22.3778 44.206 22.1634 44.3085 21.9804 44.719C20.7435 47.4945 18.5801 49.0098 15.5827 49C12.6172 48.9902 10.4943 47.4701 9.21573 44.7507C9.10883 44.5238 8.80745 44.239 8.59425 44.2365C5.72968 44.2109 2.8639 44.231 -0.00128174 44.2396V0H-7.38216e-05ZM4.36534 39.8323C5.71941 39.8323 6.99376 39.8061 8.2663 39.8451C8.79416 39.861 9.04601 39.7067 9.28397 39.1998C10.542 36.5194 12.6522 35.0402 15.6129 35.0402C18.5747 35.0402 20.6837 36.5231 21.9381 39.2046C22.1779 39.717 22.4382 39.8451 22.9588 39.8439C30.1368 39.8268 37.3155 39.8329 44.4941 39.8311C44.7484 39.8311 45.0033 39.8091 45.26 39.7976V4.45421H4.36534V39.8323ZM55.7543 26.7058V12.8441H49.725V39.8323C50.6974 39.8323 51.6088 39.814 52.5189 39.8409C52.9145 39.8525 53.0975 39.7164 53.2648 39.3449C54.5078 36.589 56.6228 35.0475 59.6432 35.0426C62.6944 35.0377 64.8161 36.5896 66.0838 39.373C66.1636 39.5475 66.3381 39.8006 66.4758 39.8055C67.5243 39.8421 68.5746 39.8256 69.6635 39.8256C69.6635 35.6178 69.6677 31.5107 69.6581 27.403C69.6569 26.868 69.3561 26.6624 68.8125 26.6734C67.1039 26.7076 65.3941 26.7027 63.6849 26.7051C61.0879 26.7088 58.4909 26.7064 55.7537 26.7064L55.7543 26.7058ZM60.1252 22.2759H66.872C66.8786 22.1729 66.9004 22.1161 66.8817 22.0814C65.2751 19.0924 63.6686 16.104 62.0482 13.1229C61.9697 12.9783 61.777 12.8179 61.6266 12.8057C61.1356 12.7654 60.6386 12.7905 60.1246 12.7905V22.2759H60.1252ZM18.2093 42.0332C18.2195 40.5747 17.0617 39.4041 15.6092 39.4035C14.1875 39.4035 13.037 40.5344 13.0104 41.96C12.9832 43.4057 14.1428 44.622 15.573 44.6477C16.9893 44.6733 18.1996 43.4728 18.2093 42.0326V42.0332ZM59.668 39.4035C58.2276 39.4011 57.0915 40.5265 57.0746 41.9722C57.0577 43.4478 58.2118 44.6452 59.6547 44.6483C61.077 44.6513 62.2898 43.4155 62.2692 41.9844C62.2487 40.5521 61.0933 39.4059 59.668 39.4035Z" fill="white"/>
<path d="M8.70483 30.5902V8.84253H26.8369V30.5902H8.70483ZM22.5131 17.2544C20.1015 20.2879 17.7847 23.2031 15.4051 26.197H22.5131V17.2544ZM20.1553 13.2223H13.0509V22.1558C15.4619 19.1241 17.7696 16.2223 20.1553 13.2223Z" fill="#F16650"/>
<path d="M31.2379 21.8453V17.5558H40.9393V21.8453H31.2379Z" fill="#F16650"/>
<path d="M31.2772 26.2806H40.9249V30.5915H31.2772V26.2806Z" fill="#F16650"/>
</g>
<defs>
<clipPath id="clip0_554_61">
<rect width="74" height="49" fill="white"/>
</clipPath>
</defs>
</svg>
