<svg width="62" height="62" viewBox="0 0 62 62" fill="none" xmlns="http://www.w3.org/2000/svg">
<g clip-path="url(#clip0_450_533)">
<path d="M0 26.7811V25.3279C0.317266 19.4153 2.50785 14.4085 6.57176 10.3075C8.79988 8.05877 11.5281 6.33197 14.5034 5.22638C14.5173 5.22117 14.5289 5.21101 14.5358 5.19783C14.5427 5.18465 14.5446 5.16938 14.5409 5.15494C14.4077 4.60679 14.2576 4.04855 14.0905 3.48021C13.9565 3.02732 13.9145 2.64951 13.9645 2.34677C14.3218 0.167087 17.3297 -0.0290844 17.9231 2.13849C18.0975 2.77302 18.2702 3.41926 18.4414 4.0772C18.4535 4.12322 18.4829 4.1426 18.5298 4.13533C23.7376 3.32481 28.5967 4.17327 33.107 6.68072C38.2354 9.53369 41.9469 14.2551 43.6252 19.9369C43.7722 20.435 43.817 20.8438 43.7596 21.1635C43.6612 21.7109 43.3927 22.1432 42.9544 22.4604C42.7356 22.6195 42.3828 22.764 41.896 22.894C36.1505 24.4335 30.4325 25.9617 24.7419 27.4786C24.6983 27.4899 24.6817 27.5177 24.6922 27.5621L28.015 41.0822C28.0161 41.0868 28.0162 41.0916 28.0152 41.0962C28.0142 41.1008 28.0121 41.1052 28.0092 41.1089C28.0063 41.1126 28.0026 41.1156 27.9984 41.1177C27.9941 41.1198 27.9895 41.1209 27.9848 41.121L23.9015 41.1222C23.8897 41.1223 23.8783 41.1183 23.8691 41.1111C23.8599 41.1038 23.8534 41.0937 23.8506 41.0822L20.7809 28.5914C20.7796 28.5865 20.7774 28.5819 20.7743 28.5778C20.7713 28.5737 20.7674 28.5703 20.7631 28.5677C20.7587 28.5651 20.7538 28.5634 20.7488 28.5627C20.7437 28.562 20.7386 28.5623 20.7337 28.5636C15.2247 30.0288 9.6318 31.5292 3.95492 33.0646C3.22594 33.2616 2.72057 33.3387 2.43883 33.2959C1.88503 33.2128 1.43536 32.9464 1.08984 32.4967C0.913047 32.2666 0.750378 31.8303 0.601836 31.1877C0.268424 29.7402 0.0678125 28.2713 0 26.7811Z" fill="#F16650"/>
<path d="M62.0001 51.0434V51.4612C61.8394 52.2644 61.4341 52.8017 60.7843 53.0729C60.4799 53.2005 60.0424 53.2627 59.4716 53.2594C56.701 53.2457 53.9413 53.2445 51.1924 53.2558C51.1889 53.2558 51.1854 53.2567 51.1823 53.2585C51.1792 53.2602 51.1766 53.2627 51.1748 53.2658C51.173 53.2688 51.1719 53.2723 51.1719 53.2759C51.1718 53.2794 51.1726 53.2829 51.1743 53.2861C52.0389 54.9564 52.9172 56.6472 53.8093 58.3587C54.1717 59.0546 54.1689 59.7311 53.8008 60.3882C53.1663 61.5217 51.6308 61.7106 50.6947 60.8678C50.4962 60.6893 50.2576 60.3273 49.9791 59.7815C48.8658 57.6002 47.7413 55.4331 46.6054 53.28C46.5949 53.2598 46.5784 53.2497 46.5558 53.2497H31.0655C31.0275 53.2497 31.013 53.2683 31.0219 53.3054C31.4279 54.9644 31.8687 56.7506 32.3442 58.6638C32.4435 59.0643 32.4718 59.3928 32.429 59.6495C32.2001 61.0167 30.816 61.7965 29.536 61.1826C28.8192 60.8387 28.5467 60.2514 28.3638 59.4824C27.8851 57.4699 27.3802 55.406 26.849 53.2909C26.8462 53.2792 26.8396 53.2687 26.8301 53.2612C26.8207 53.2538 26.809 53.2497 26.7969 53.2497H15.718C15.693 53.2497 15.6744 53.261 15.6623 53.2836C14.5773 55.3471 13.4431 57.5316 12.2596 59.8372C11.9778 60.3862 11.7357 60.7422 11.533 60.9053C10.9598 61.3654 10.3342 61.5015 9.65607 61.3134C8.71275 61.0518 8.0867 60.1254 8.20658 59.1434C8.24049 58.8673 8.35633 58.5415 8.55412 58.1661C9.42034 56.5225 10.2668 54.8962 11.0935 53.2873C11.0951 53.284 11.0959 53.2803 11.0957 53.2766C11.0955 53.2729 11.0944 53.2693 11.0925 53.2662C11.0906 53.263 11.0879 53.2604 11.0846 53.2586C11.0814 53.2568 11.0778 53.2558 11.0741 53.2558C10.3524 53.2413 9.63629 53.2417 8.92588 53.257C7.96682 53.2772 7.28102 53.2223 6.8685 53.0923C4.93463 52.4869 4.06881 50.7443 4.21291 48.7971C4.334 47.1539 5.27006 45.8412 6.85881 45.3314C7.20352 45.2208 7.89133 45.1655 8.92225 45.1655C21.6121 45.172 34.2942 45.1748 46.9687 45.174C46.9883 45.174 47.0074 45.1684 47.024 45.1579C47.0405 45.1474 47.0536 45.1324 47.0619 45.1147C49.1003 40.7359 51.257 36.0964 53.532 31.1962C54.887 28.279 58.9618 28.279 60.3411 31.1816C60.886 32.3284 60.7746 33.5163 60.1764 34.6388C59.1204 36.6199 58.0875 38.5776 57.0776 40.5119C57.0701 40.5262 57.0661 40.542 57.0659 40.5582C57.0657 40.5744 57.0693 40.5905 57.0764 40.6051C58.6425 43.8408 60.2075 47.0804 61.7712 50.3241C61.881 50.551 61.9573 50.7907 62.0001 51.0434ZM52.5136 49.1653C52.5105 49.1711 52.5089 49.1777 52.5091 49.1844C52.5092 49.191 52.5111 49.1975 52.5145 49.2033C52.5179 49.209 52.5227 49.2137 52.5285 49.217C52.5343 49.2203 52.5408 49.2221 52.5475 49.2222H56.6901C56.6967 49.2222 56.7032 49.2206 56.709 49.2174C56.7148 49.2142 56.7196 49.2097 56.7231 49.2041C56.7267 49.1985 56.7287 49.1921 56.7291 49.1855C56.7294 49.179 56.7281 49.1724 56.7252 49.1665L54.7429 45.065C54.7399 45.0583 54.735 45.0525 54.7289 45.0485C54.7227 45.0444 54.7155 45.0422 54.7082 45.042C54.7008 45.0419 54.6935 45.0439 54.6873 45.0477C54.681 45.0516 54.6759 45.0572 54.6727 45.0638L52.5136 49.1653Z" fill="white"/>
</g>
<defs>
<clipPath id="clip0_450_533">
<rect width="62" height="62" fill="white"/>
</clipPath>
</defs>
</svg>
