<svg width="66" height="57" viewBox="0 0 66 57" fill="none" xmlns="http://www.w3.org/2000/svg">
<path d="M27.5458 31.4579C26.9859 32.1273 26.4372 32.8311 25.8393 33.4887C24.4561 35.0094 24.3416 37.1649 25.5509 38.8246C25.7373 39.0803 25.8664 39.4442 25.8693 39.7599C25.8948 42.2434 25.8823 44.7278 25.884 47.2117C25.8856 49.6622 27.3703 51.1837 29.7743 51.1867C33.5003 51.1913 37.2264 51.1917 40.9525 51.1867C43.3092 51.1833 44.7935 49.6867 44.7968 47.3177C44.8006 44.8119 44.796 42.3064 44.7981 39.8005C44.7989 38.8707 44.933 38.7832 45.7775 39.1399C49.4288 40.6822 53.0863 42.21 56.7268 43.7776C57.4108 44.0722 58.02 44.0181 58.6422 43.7087C60.1089 42.9793 61.5635 42.2244 63.034 41.5029C63.9449 41.0558 65.6916 41.9379 65.9402 42.9433C66.1286 43.7062 65.8616 44.2688 65.1534 44.5777C55.9909 48.5755 46.8243 52.5628 37.6698 56.5792C36.2871 57.1857 35.0435 57.1232 33.6533 56.4909C29.3393 54.5285 24.9747 52.679 20.6239 50.8004C14.4137 48.1191 8.19672 45.453 1.98563 42.7739C1.6317 42.6213 1.2715 42.4526 0.966879 42.2202C0.223921 41.6534 -0.153408 40.9036 0.0571942 39.94C0.24356 39.0862 1.04544 38.4278 1.95846 38.2135C2.65546 38.0499 3.2484 38.1556 3.86767 38.5009C4.82792 39.0364 5.81658 39.5216 6.81026 39.992C8.1073 40.6061 9.37133 40.6822 10.6788 39.8927C13.1547 38.3982 15.6664 36.9637 18.1886 35.5508C18.7252 35.2503 18.9069 34.9075 18.8714 34.32C18.8284 33.6037 18.825 32.8797 18.8831 32.1654C18.9019 31.9317 19.1171 31.6058 19.3248 31.5145C20.5867 30.9604 21.87 30.4554 23.1528 29.952C23.3384 29.8793 23.5912 29.826 23.7617 29.8941C25.0988 30.4266 26.4238 30.9913 27.5454 31.4591L27.5458 31.4579Z" fill="white"/>
<path d="M56.5233 40.9281C56.2375 40.825 56.0344 40.762 55.8388 40.6801C52.74 39.3829 49.6449 38.0761 46.5406 36.7925C46.1311 36.6235 45.9343 36.4257 45.9313 35.9472C45.9288 35.547 45.854 35.0888 45.651 34.7571C44.3255 32.5965 42.7322 30.8091 39.9275 30.8281C37.6669 30.8433 35.4054 30.8497 33.1452 30.8171C32.6237 30.8095 32.0742 30.703 31.5899 30.509C29.4914 29.668 27.4167 28.7669 25.3228 27.914C24.9091 27.7453 24.7274 27.5492 24.7387 27.067C24.7738 25.5429 24.7725 24.0172 24.7387 22.4931C24.7286 22.0413 24.8891 21.8439 25.2764 21.6786C26.5045 21.155 27.7105 20.5776 28.9403 20.0574C29.3606 19.8794 29.5073 19.6432 29.5048 19.1804C29.4864 15.5646 29.4948 11.9484 29.4948 8.33226C29.4948 8.07699 29.4948 7.82171 29.4948 7.47852C31.1194 8.00006 32.6517 8.48907 34.1823 8.98441C41.4285 11.3301 48.6725 13.6817 55.9224 16.016C56.375 16.1618 56.5751 16.3444 56.5739 16.863C56.5572 24.6832 56.5626 32.5031 56.5609 40.3233C56.5609 40.4945 56.54 40.6657 56.5233 40.9286V40.9281ZM50.659 32.0284C50.6808 31.8522 50.7092 31.7279 50.7092 31.6037C50.7117 28.3379 50.7012 25.0725 50.723 21.8067C50.7259 21.3435 50.4944 21.223 50.1442 21.1055C44.6205 19.2488 39.0993 17.3854 33.5768 15.5262C33.4026 15.4674 33.2192 15.4366 32.9793 15.3778C32.9793 15.6584 32.9793 15.8736 32.9793 16.0891C32.9793 19.2023 32.9952 22.3156 32.9643 25.4288C32.9588 25.9706 33.1431 26.1782 33.6236 26.3388C39.0701 28.1583 44.5098 29.9989 49.952 31.8315C50.1714 31.9055 50.3987 31.9566 50.6595 32.0284H50.659ZM34.1819 11.7375C34.1669 11.0854 33.6157 10.5427 32.9785 10.5529C32.3375 10.563 31.8051 11.115 31.8055 11.7692C31.8059 12.4493 32.3843 13.019 33.0416 12.9869C33.6842 12.9556 34.197 12.3935 34.1815 11.7375H34.1819ZM38.9192 12.9814C38.9301 12.3449 38.3848 11.7768 37.7454 11.7591C37.1094 11.7413 36.5374 12.276 36.5077 12.9159C36.4776 13.5621 37.0689 14.1842 37.7124 14.1838C38.3309 14.183 38.9083 13.6078 38.9192 12.9814ZM43.6176 14.2261C43.6532 13.557 43.1547 12.9936 42.4986 12.9611C41.8313 12.9281 41.2768 13.4273 41.2446 14.0896C41.2128 14.7481 41.7206 15.3271 42.3645 15.3668C43.0055 15.4065 43.583 14.8808 43.6176 14.2257V14.2261ZM53.0551 17.7645C53.0684 17.1026 52.5461 16.5422 51.898 16.5232C51.2549 16.5046 50.6979 17.0447 50.6816 17.7028C50.6649 18.374 51.1755 18.9175 51.8374 18.9327C52.5014 18.9479 53.0417 18.4297 53.0551 17.7641V17.7645ZM48.3566 15.9594C48.3654 15.3368 47.7996 14.7447 47.1782 14.7257C46.5615 14.7071 45.9744 15.2671 45.946 15.901C45.9167 16.5485 46.5109 17.1724 47.1532 17.169C47.772 17.1656 48.3478 16.5866 48.3566 15.9594Z" fill="white"/>
<path d="M62.6804 11.511C60.9981 12.3597 59.447 13.1593 57.875 13.9137C57.6674 14.0135 57.336 13.9311 57.0878 13.8512C47.8079 10.8567 38.5289 7.85888 29.2578 4.83694C28.532 4.60026 27.9127 4.62478 27.2153 4.94134C21.4074 7.58078 15.5845 10.1868 9.77289 12.8182C9.34667 13.0114 9.04456 12.9949 8.66848 12.6957C7.53691 11.7946 6.37233 10.9366 5.14465 10.0047C5.39161 9.87195 5.56544 9.76671 5.74888 9.68218C12.6787 6.4895 19.6073 3.29301 26.5484 0.12442C26.8768 -0.0256202 27.3523 -0.0374544 27.6996 0.0753926C39.1845 3.80737 50.6619 7.56218 62.1401 11.3149C62.2822 11.3614 62.4218 11.4167 62.6804 11.511Z" fill="white"/>
<path d="M27.0582 7.73969V8.4603C27.0582 11.4226 27.0461 14.3854 27.0695 17.3477C27.0736 17.8748 26.9291 18.1457 26.4289 18.3655C23.3129 19.7332 20.2203 21.1566 17.1043 22.5248C16.5828 22.7538 16.4303 23.0362 16.4353 23.5945C16.4629 26.7745 16.4407 29.9549 16.4579 33.1353C16.4604 33.5783 16.3379 33.8336 15.9401 34.055C14.3573 34.9362 12.7974 35.8597 11.2279 36.7659C11.0658 36.8597 10.8961 36.9404 10.6613 37.0634C10.6462 36.7798 10.6254 36.5723 10.6254 36.3644C10.6237 29.4591 10.6254 22.5539 10.6195 15.6487C10.6195 15.3017 10.6446 15.0519 11.0286 14.8803C16.2598 12.5422 21.4822 10.1847 26.708 7.83394C26.7836 7.80012 26.8697 7.78956 27.059 7.73969H27.0582Z" fill="white"/>
<path d="M42.4117 40.4404C42.4117 42.8706 42.4234 45.221 42.4046 47.5713C42.3991 48.2708 41.9512 48.7137 41.2546 48.7158C37.3133 48.7277 33.3725 48.7277 29.4312 48.7137C28.7501 48.7112 28.331 48.3088 28.3214 47.6102C28.2917 45.3668 28.3109 43.1225 28.2971 40.8787C28.2938 40.3385 28.6611 40.4433 28.9661 40.4429C32.9935 40.4395 37.0208 40.4404 41.0482 40.4404C41.4769 40.4404 41.9056 40.4404 42.4117 40.4404Z" fill="#F16650"/>
<path d="M63.6274 13.7464C63.6274 14.1027 63.6274 14.3191 63.6274 14.5359C63.6274 22.3139 63.6203 30.0923 63.6416 37.8703C63.6433 38.4455 63.4624 38.6919 62.9472 38.9104C61.8185 39.3897 60.73 39.9662 59.6239 40.5013C59.4363 40.5922 59.2445 40.6746 58.9758 40.7967C58.9758 40.4937 58.9758 40.2802 58.9758 40.0668C58.9758 32.3104 58.9817 24.5539 58.9633 16.7979C58.962 16.2658 59.1221 15.989 59.5951 15.765C60.9143 15.1394 62.2088 14.4611 63.627 13.7464H63.6274Z" fill="white"/>
<path d="M8.15504 37.9675C6.62943 37.1953 5.18614 36.4794 3.76415 35.7232C3.62166 35.6476 3.54519 35.3264 3.54269 35.118C3.5243 33.6155 3.53266 32.113 3.53266 30.6105C3.53266 24.6435 3.53266 18.677 3.53266 12.7101V11.9003C3.72822 12.0123 3.87363 12.0761 3.99732 12.1691C5.25634 13.1196 6.52287 14.0604 7.75766 15.0422C7.9716 15.2121 8.168 15.56 8.16883 15.8267C8.19098 23.0565 8.18638 30.2863 8.18513 37.5161C8.18513 37.6235 8.17134 37.7308 8.15546 37.9675H8.15504Z" fill="white"/>
<path d="M35.3511 37.9878C33.2418 37.9882 31.1324 37.9907 29.0226 37.9873C28.0816 37.9857 27.4974 37.6589 27.253 36.9675C26.9776 36.1886 27.1648 35.5191 27.7728 34.9595C28.0908 34.6666 28.3862 34.3483 28.6887 34.0385C29.1994 33.5153 29.809 33.2731 30.5424 33.2761C33.7495 33.2875 36.957 33.2871 40.1641 33.2761C40.8732 33.2736 41.4661 33.5014 41.963 34.0081C42.3265 34.3792 42.703 34.7376 43.0636 35.1116C43.5784 35.6455 43.7368 36.2718 43.4493 36.9692C43.1618 37.6666 42.6178 37.9895 41.8731 37.9882C39.699 37.9848 37.5249 37.9869 35.3511 37.9873V37.9878Z" fill="#F16650"/>
<path d="M48.2865 28.7106C44.0422 27.28 39.9054 25.8895 35.7757 24.4787C35.6056 24.4208 35.3841 24.1731 35.3816 24.0104C35.3553 22.335 35.3683 20.6588 35.3741 18.983C35.3741 18.9251 35.4134 18.8667 35.4568 18.7471C35.6837 18.811 35.9069 18.8634 36.1238 18.9361C39.9743 20.2332 43.8212 21.5421 47.6776 22.8215C48.1678 22.9842 48.3491 23.2027 48.3337 23.7378C48.2927 25.1515 48.3207 26.567 48.3186 27.9816C48.3186 28.1933 48.3007 28.4046 48.2869 28.7102L48.2865 28.7106Z" fill="#F16650"/>
</svg>
