<svg width="65" height="65" viewBox="0 0 65 65" fill="none" xmlns="http://www.w3.org/2000/svg">
<g clip-path="url(#clip0_555_136)">
<path d="M64.9867 63.6911C64.9839 64.6301 64.6161 64.9986 63.6755 64.9993C42.8895 65.0007 22.1042 65.0007 1.31824 64.9993C0.37696 64.9986 0.00915368 64.6301 0.00634599 63.6925C0.00143254 61.7485 -0.00628859 59.8051 0.00774983 57.8611C0.0245959 55.4806 1.12451 53.7955 3.30116 52.82C3.37767 52.7849 3.45278 52.7456 3.57632 52.6852C2.15001 50.099 2.42446 47.7957 4.31053 46.1899C5.97618 44.773 8.44765 44.7098 10.1856 46.0397C12.217 47.5936 12.5377 49.7966 11.1788 52.5884C12.0113 53.1807 12.8347 53.7667 13.6398 54.3394C14.3894 53.7997 15.2233 53.199 16.1007 52.5666C15.3026 51.3953 14.965 50.038 15.37 48.5564C15.662 47.4869 16.2727 46.6258 17.1676 45.9731C18.94 44.6817 21.3925 44.8059 23.035 46.2657C24.8529 47.8813 25.1007 50.2008 23.739 52.5708C24.5785 53.1716 25.4145 53.7709 26.2147 54.3436C26.9678 53.7976 27.7863 53.2053 28.6679 52.5666C27.8179 51.2949 27.4901 49.8148 28.0551 48.2196C28.4089 47.2202 29.042 46.4299 29.9299 45.8495C31.717 44.6817 34.0481 44.8607 35.6316 46.2826C37.4173 47.8862 37.6441 50.0443 36.3259 52.5863C37.1555 53.1751 37.9803 53.7597 38.7952 54.338C39.5357 53.8039 40.3689 53.2032 41.2519 52.5659C40.451 51.3834 40.1106 50.0064 40.5388 48.5059C40.8427 47.4399 41.4625 46.5843 42.3645 45.9429C44.1754 44.6558 46.6462 44.827 48.2768 46.345C50.0238 47.9711 50.2428 50.2689 48.8909 52.5708C49.7269 53.1674 50.5629 53.7639 51.3708 54.3408C52.131 53.7941 52.9656 53.1933 53.8114 52.5856C52.4546 49.8001 52.774 47.6027 54.8046 46.0433C56.5419 44.7105 59.007 44.7709 60.679 46.1871C62.5651 47.7859 62.8409 50.0948 61.4251 52.6684C61.5732 52.7463 61.7192 52.8277 61.8688 52.8993C63.8952 53.872 64.9404 55.4939 64.9804 57.7292C65.0162 59.716 64.9916 61.7036 64.9867 63.6911Z" fill="white"/>
<path d="M1.24939 5.0166V33.4254H19.9058V28.3534H45.1096V33.4254H64.4026V5.0166H1.24939ZM32.5137 9.44014C34.2263 9.44926 35.6295 10.8543 35.6351 12.566C35.6414 14.3051 34.2207 15.7256 32.4765 15.7228C30.7729 15.72 29.355 14.3002 29.355 12.5962C29.355 10.8494 30.7743 9.43032 32.5137 9.44014ZM19.9219 19.914C19.3351 19.9182 18.8494 19.4129 18.8746 18.8255C18.8992 18.2641 19.3863 17.8093 19.9458 17.8254C20.5087 17.8416 20.9699 18.3209 20.9621 18.8817C20.9537 19.4445 20.4848 19.9105 19.9219 19.914ZM38.7699 26.1869H26.2076V22.9845C26.2076 22.2869 26.1929 21.5886 26.2132 20.8917C26.2616 19.2101 27.5855 17.857 29.2645 17.8324C31.4222 17.8016 33.5813 17.8023 35.739 17.8331C37.3113 17.8556 38.6779 19.0831 38.7502 20.6432C38.8352 22.4672 38.7699 24.2983 38.7699 26.1869ZM45.1061 19.914C44.5186 19.9323 44.0217 19.4417 44.0308 18.8536C44.0392 18.29 44.5102 17.8254 45.0738 17.8254C45.6375 17.8254 46.1078 18.2914 46.1169 18.8536C46.126 19.4164 45.6677 19.8972 45.1061 19.914Z" fill="#F16650"/>
<path d="M63.4735 0H1.51982C0.31111 0 0.00507271 0.302482 0.00507271 1.49908C0.00437079 12.0235 0.00507271 22.5486 0.00507271 33.0737C0.00507271 34.3082 0.300582 34.5967 1.56123 34.5967C6.71333 34.5974 11.8647 34.5967 17.0168 34.5967H17.8479V42.9511H19.9059V28.3533H45.1098V42.9455H47.1917V34.5967H47.9758C53.1279 34.5967 58.28 34.5974 63.4321 34.5967C64.692 34.5967 64.9882 34.3075 64.9882 33.0737V1.49908C64.9882 0.302482 64.6815 0 63.4735 0ZM19.9221 19.914C19.3353 19.9182 18.8495 19.4129 18.8748 18.8255C18.8994 18.264 19.3865 17.8093 19.9459 17.8254C20.5089 17.8415 20.9701 18.3209 20.9623 18.8816C20.9539 19.4445 20.485 19.9105 19.9221 19.914ZM38.7701 26.1868H26.2078V22.9844C26.2078 22.2868 26.193 21.5885 26.2134 20.8916C26.2618 19.2101 27.5857 17.857 29.2647 17.8324C31.4224 17.8015 33.5815 17.8022 35.7392 17.8331C37.3115 17.8556 38.6781 19.0831 38.7504 20.6432C38.8353 22.4672 38.7701 24.2982 38.7701 26.1868ZM29.3552 12.5962C29.3552 10.8494 30.7745 9.43029 32.5138 9.44011C34.2265 9.44924 35.6297 10.8543 35.6353 12.566C35.6416 14.3051 34.2209 15.7256 32.4766 15.7228C30.7731 15.72 29.3552 14.3002 29.3552 12.5962ZM44.0338 22.3984C43.9938 22.9634 44.0745 23.5431 43.9867 24.0975C43.8751 24.8 43.6463 25.4843 43.4652 26.1847H40.8814C40.8814 25.2738 40.8857 24.3867 40.8814 23.4989C40.8744 22.4511 40.9664 21.3892 40.8267 20.359C40.4982 17.9363 39.034 16.4632 36.6425 15.8014C37.6323 14.3479 38.026 12.7962 37.5115 11.0866C37.1585 9.91454 36.4818 8.97621 35.4809 8.27791C33.4881 6.88831 30.8019 7.05815 29.0056 8.67935C27.0052 10.4844 26.7525 13.0102 28.329 15.8C28.169 15.8554 28.018 15.9116 27.8643 15.96C25.5803 16.6821 24.1336 18.6142 24.1154 21.0004C24.102 22.7023 24.1133 24.4049 24.1133 26.1588H21.5555C21.0718 24.873 20.8563 23.5283 20.9897 22.1465C21.0094 21.9451 21.281 21.7184 21.4895 21.5927C22.6778 20.8769 23.2948 19.4887 22.9782 18.17C22.6497 16.7993 21.5077 15.807 20.1671 15.7256C18.7309 15.6392 17.4696 16.4421 16.9789 17.7566C16.4363 19.2115 17.0084 20.8425 18.3877 21.5808C18.785 21.7928 18.898 22.018 18.8804 22.4335C18.8545 23.0652 18.8341 23.7059 18.9113 24.3298C18.985 24.9313 19.1865 25.5166 19.3423 26.1517C19.1949 26.1742 19.0763 26.1988 18.9562 26.2093C18.1792 26.276 17.8311 26.6374 17.8268 27.4354C17.8177 29.093 17.824 30.75 17.824 32.454H2.13961V6.30581H26.1601V4.20177H2.134V2.14404H62.8628V4.17229H38.836V6.27703H62.8572V32.4484H47.17V29.8026C47.17 29.1478 47.17 28.4923 47.17 27.8375C47.17 26.5391 46.965 26.3019 45.8335 26.1777C45.9311 24.7972 46.0125 23.4217 46.1437 22.0503C46.1599 21.8868 46.4252 21.7135 46.6105 21.6054C47.9687 20.8116 48.5577 19.222 48.0165 17.7643C47.4788 16.3137 45.929 15.4505 44.4437 15.7733C42.9156 16.106 41.8543 17.4534 41.9378 19.0051C41.9996 20.1589 42.5513 21.0509 43.5677 21.5963C43.9341 21.7928 44.0626 21.9998 44.0338 22.3984ZM45.1063 19.914C44.5188 19.9322 44.0218 19.4417 44.031 18.8536C44.0394 18.29 44.5104 17.8254 45.074 17.8254C45.6377 17.8254 46.108 18.2914 46.1171 18.8536C46.1262 19.4164 45.6678 19.8972 45.1063 19.914Z" fill="white"/>
<path d="M64.9804 57.7292C64.9404 55.4939 63.8952 53.872 61.8688 52.8993C61.7192 52.8277 61.5732 52.7463 61.4251 52.6684C62.8409 50.0948 62.5651 47.7859 60.679 46.1871C59.007 44.7709 56.5419 44.7105 54.8046 46.0433C52.774 47.6027 52.4546 49.8001 53.8114 52.5856C52.9656 53.1933 52.131 53.7941 51.3708 54.3408C50.5629 53.7639 49.7269 53.1674 48.8909 52.5708C50.2428 50.2689 50.0238 47.9711 48.2768 46.345C46.6462 44.827 44.1754 44.6558 42.3645 45.9429C41.4625 46.5843 40.8427 47.4399 40.5388 48.5059C40.1106 50.0064 40.451 51.3834 41.2519 52.5659C40.3689 53.2032 39.5357 53.8039 38.7952 54.338C37.9803 53.7597 37.1555 53.1751 36.3259 52.5863C37.6441 50.0443 37.4173 47.8862 35.6316 46.2826C34.0481 44.8607 31.717 44.6817 29.9299 45.8495C29.042 46.4299 28.4089 47.2202 28.0551 48.2196C27.4901 49.8148 27.8179 51.2949 28.6679 52.5666C27.7863 53.2053 26.9678 53.7976 26.2147 54.3436C25.4145 53.7709 24.5785 53.1716 23.739 52.5708C25.1007 50.2008 24.8529 47.8813 23.035 46.2657C21.3925 44.8059 18.94 44.6817 17.1676 45.9731C16.2727 46.6258 15.662 47.4869 15.37 48.5564C14.965 50.038 15.3026 51.3953 16.1007 52.5666C15.2233 53.199 14.3894 53.7997 13.6398 54.3394C12.8347 53.7667 12.0113 53.1807 11.1788 52.5884C12.5377 49.7966 12.217 47.5936 10.1856 46.0397C8.44765 44.7098 5.97618 44.773 4.31053 46.1899C2.42446 47.7957 2.15001 50.099 3.57632 52.6852C3.45278 52.7456 3.37767 52.7849 3.30116 52.82C1.12451 53.7955 0.0245959 55.4806 0.00774983 57.8611C-0.00628859 59.8051 0.00143254 61.7485 0.00634599 63.6925C0.00915368 64.6301 0.37696 64.9986 1.31824 64.9993C22.1042 65.0007 42.8895 65.0007 63.6755 64.9993C64.6161 64.9986 64.9839 64.6301 64.9867 63.6911C64.9916 61.7036 65.0162 59.716 64.9804 57.7292ZM7.34493 47.1802C8.78878 47.1886 9.96029 48.3649 9.95748 49.8036C9.95467 51.2423 8.77615 52.4157 7.3351 52.4143C5.89827 52.4136 4.72606 51.2353 4.72396 49.7909C4.72185 48.3557 5.91091 47.1718 7.34493 47.1802ZM12.5721 62.8812H2.10088V60.5378C2.10088 59.6002 2.09246 58.6633 2.10298 57.7257C2.12404 55.8897 3.45418 54.5408 5.27777 54.5205C6.67249 54.5043 8.06791 54.5008 9.46263 54.5219C11.1044 54.5464 12.4921 55.7851 12.5553 57.393C12.6269 59.1967 12.5721 61.0059 12.5721 62.8812ZM19.8777 47.1795C21.3223 47.1655 22.5148 48.3227 22.5345 49.758C22.5542 51.1995 21.396 52.3933 19.9577 52.4143C18.5202 52.4354 17.3262 51.2767 17.3017 49.8366C17.2771 48.3999 18.4465 47.1942 19.8777 47.1795ZM25.14 62.8756H14.7116C14.7116 60.9589 14.614 59.0633 14.7425 57.1832C14.8457 55.6623 16.2186 54.5521 17.7474 54.5247C19.2074 54.498 20.6688 54.4938 22.1281 54.5268C23.6716 54.5612 25.034 55.7479 25.1169 57.2856C25.2158 59.1286 25.14 60.9807 25.14 62.8756ZM32.4597 47.1795C33.9042 47.1676 35.0947 48.327 35.1115 49.7629C35.1291 51.2037 33.9695 52.3954 32.5306 52.4143C31.093 52.4333 29.9012 51.2725 29.8787 49.8316C29.8569 48.3957 31.0284 47.1914 32.4597 47.1795ZM37.7297 62.8545H27.269C27.269 60.9968 27.2086 59.1672 27.2879 57.3439C27.3546 55.8153 28.6953 54.5752 30.2276 54.531C31.7304 54.4875 33.236 54.4896 34.7388 54.5289C36.3287 54.5703 37.6665 55.8623 37.7164 57.4484C37.7725 59.2325 37.7297 61.02 37.7297 62.8545ZM45.0788 47.1802C46.522 47.1886 47.6928 48.3656 47.6892 49.8043C47.6864 51.243 46.5072 52.4157 45.0662 52.4143C43.63 52.4129 42.4578 51.2346 42.4564 49.7902C42.4543 48.355 43.6441 47.1711 45.0788 47.1802ZM50.3144 62.858H39.8474C39.8474 60.9898 39.7842 59.1588 39.867 57.3348C39.9358 55.8055 41.28 54.5724 42.8144 54.5303C44.3165 54.4882 45.8221 54.4889 47.325 54.5296C48.8874 54.5717 50.1691 55.8371 50.3018 57.3916C50.3208 57.6085 50.3137 57.8274 50.3137 58.0457C50.3151 59.6346 50.3137 61.2235 50.3137 62.858H50.3144ZM57.6418 47.1802C59.0856 47.1816 60.2628 48.3522 60.267 49.7902C60.2705 51.2304 59.099 52.4087 57.6579 52.4143C56.2211 52.4199 55.0426 51.2479 55.0334 49.8043C55.025 48.3684 56.2071 47.1781 57.6418 47.1802ZM62.8816 62.8601H52.4202C52.4202 61.0066 52.369 59.1981 52.4356 57.3937C52.4932 55.8413 53.8374 54.5724 55.3977 54.5296C56.9006 54.4889 58.4062 54.4882 59.909 54.5303C61.4701 54.5738 62.8079 55.8406 62.8662 57.3986C62.9336 59.2023 62.8816 61.0109 62.8816 62.8601Z" fill="white"/>
</g>
<defs>
<clipPath id="clip0_555_136">
<rect width="65" height="65" fill="white"/>
</clipPath>
</defs>
</svg>
