<svg width="17" height="12" viewBox="0 0 17 12" fill="none" xmlns="http://www.w3.org/2000/svg">
<path d="M15.8813 3.96875C16.0063 3.875 16.1938 3.96875 16.1938 4.125V10.5C16.1938 11.3438 15.5063 12 14.6938 12H1.69375C0.85 12 0.19375 11.3438 0.19375 10.5V4.125C0.19375 3.96875 0.35 3.875 0.475 3.96875C1.19375 4.53125 2.1 5.21875 5.2875 7.53125C5.94375 8 7.06875 9.03125 8.19375 9.03125C9.2875 9.03125 10.4438 8 11.0688 7.53125C14.2563 5.21875 15.1625 4.53125 15.8813 3.96875ZM8.19375 8C7.44375 8.03125 6.4125 7.09375 5.88125 6.71875C1.725 3.71875 1.4125 3.4375 0.475 2.6875C0.2875 2.5625 0.19375 2.34375 0.19375 2.09375V1.5C0.19375 0.6875 0.85 0 1.69375 0H14.6938C15.5063 0 16.1938 0.6875 16.1938 1.5V2.09375C16.1938 2.34375 16.0688 2.5625 15.8813 2.6875C14.9438 3.4375 14.6313 3.71875 10.475 6.71875C9.94375 7.09375 8.9125 8.03125 8.19375 8Z" fill="white"/>
</svg>
