<svg width="68" height="68" viewBox="0 0 68 68" fill="none" xmlns="http://www.w3.org/2000/svg">
<g clip-path="url(#clip0_555_92)">
<path d="M2.16886 32.902V6.57993C1.80302 6.57993 1.46637 6.59553 1.13174 6.57691C0.445853 6.53817 0.0246613 6.13409 0.0151002 5.4442C-0.00502842 4.00554 -0.00553164 2.56587 0.0156034 1.12671C0.0261709 0.439834 0.452394 0.0478384 1.14381 0.00556922C1.30333 -0.00399166 1.46335 0.00254999 1.62338 0.00254999C23.2068 0.00254999 44.7897 0.00154358 66.3731 0.00909165C66.7294 0.00909165 67.1848 -0.00902371 67.4163 0.188736C67.7036 0.434802 67.9421 0.890202 67.9618 1.26811C68.0282 2.52109 67.9884 3.7796 67.9869 5.0361C67.9854 6.25084 67.6618 6.5749 66.4476 6.58245C66.2654 6.58345 66.0833 6.58245 65.8478 6.58245V32.9041C66.1648 32.9041 66.4974 32.8915 66.829 32.9066C67.5285 32.9383 67.9708 33.3267 67.9769 34.0061C67.997 36.199 67.9965 38.392 67.9758 40.585C67.9698 41.2336 67.5355 41.6236 66.8829 41.6709C66.6786 41.686 66.4717 41.6754 66.2664 41.6754C44.7514 41.6754 23.237 41.6754 1.72201 41.6754C0.276269 41.6754 0.00755196 41.4067 0.00704875 39.963C0.00704875 38.1354 0.00654553 36.3082 0.00704875 34.4806C0.00755196 33.2181 0.313507 32.9126 1.5801 32.9025C1.75924 32.901 1.93839 32.9025 2.16836 32.9025L2.16886 32.902ZM12.5985 9.65099C12.2241 10.0868 11.9911 10.4365 11.6837 10.6992C11.1432 11.1606 10.9495 11.6829 10.953 12.4131C10.9852 18.9673 10.9716 25.522 10.9716 32.0763V32.8472H25.2257C25.2257 31.1484 25.2247 29.5044 25.2257 27.8609C25.2267 26.6487 25.5533 26.3231 26.7696 26.3231C31.5647 26.3221 36.3593 26.3226 41.1545 26.3231C42.4633 26.3231 42.7678 26.6266 42.7683 27.9294C42.7688 29.5668 42.7683 31.2042 42.7683 32.8603H56.9761C56.9957 32.7546 57.0178 32.6897 57.0178 32.6248C57.0203 25.6821 57.0219 18.7394 57.0163 11.7966C57.0163 11.6276 56.9771 11.4208 56.8764 11.296C56.4361 10.752 55.9656 10.2322 55.3899 9.56947C54.6276 10.4068 54.0328 11.06 53.5341 11.6079C52.9685 11.0982 52.4527 10.6327 51.7814 10.0274C52.4798 9.42605 53.1486 8.84989 53.9049 8.19824C53.362 7.69604 52.9282 7.25825 52.4522 6.87179C52.2614 6.7168 51.9786 6.59402 51.7376 6.59352C39.91 6.58044 28.0824 6.58144 16.2549 6.58748C16.0631 6.58748 15.8271 6.61868 15.6877 6.72989C15.1413 7.16667 14.625 7.64169 13.9617 8.22088C14.8006 8.97216 15.4593 9.56192 16.0148 10.0591C15.4935 10.6403 15.0295 11.1576 14.4976 11.7509C13.8903 11.0791 13.3101 10.4375 12.598 9.65048L12.5985 9.65099ZM2.23378 39.4367H65.7406V35.1287H2.23378V39.4367ZM2.23277 4.34269H65.7396V2.22973H2.23277V4.34269ZM27.4484 32.8532H40.5194V28.5523H27.4484V32.8532ZM8.71871 15.8208V8.44128C7.50697 9.64998 6.25195 10.9009 5.02763 12.1217C6.2122 13.3088 7.45212 14.5512 8.71871 15.8203V15.8208ZM59.2516 8.33662V15.7347C60.4855 14.5004 61.742 13.2429 62.9512 12.0332C61.7581 10.8411 60.5101 9.59412 59.2516 8.33712V8.33662ZM5.08701 25.1104C6.33247 26.3554 7.58749 27.6098 8.72878 28.7506V21.4718C7.46873 22.7308 6.2288 23.9697 5.08701 25.1104ZM59.2436 28.8206C60.4538 27.6078 61.7128 26.3468 62.8607 25.1965C61.6967 24.0306 60.4543 22.7856 59.2436 21.5729V28.8206ZM63.5405 22.4022V15.0287C62.3313 16.2349 61.0768 17.4859 59.8449 18.7142C61.03 19.8972 62.2729 21.1371 63.5405 22.4017V22.4022ZM4.44541 14.9437V22.3599C5.69338 21.1105 6.94186 19.86 8.14304 18.6568C6.93633 17.4451 5.68835 16.1921 4.44541 14.9437ZM63.5898 27.8901C62.0973 29.3841 60.7129 30.7549 59.3553 32.1518C59.2144 32.2967 59.235 32.5981 59.1756 32.8462H63.5898V27.8901ZM4.42377 32.8648H8.93711C8.73582 32.4804 8.63468 32.1648 8.4354 31.9344C8.04944 31.4875 7.6061 31.0905 7.18944 30.6703C6.30227 29.7746 5.41712 28.8769 4.42377 27.8715V32.8648ZM7.03898 6.6217H4.4444V9.17143C5.29484 8.33561 6.16037 7.4852 7.03898 6.6217ZM61.0587 6.61616C61.896 7.45953 62.7479 8.3175 63.5531 9.12866V6.61616H61.0587ZM10.9852 8.04023C11.4723 7.56772 11.9765 7.07911 12.436 6.63377H10.9852V8.04023ZM55.473 6.59654C56.0038 7.11383 56.5066 7.60295 56.972 8.05684V6.59654H55.473Z" fill="white"/>
<path d="M22.1792 46.475C22.7614 46.9409 23.2923 47.3656 23.8876 47.8427C23.3754 48.4833 22.8827 49.0997 22.3896 49.7166C21.4767 50.8579 20.5961 52.0278 19.6309 53.1233C19.3532 53.4388 18.8399 53.6874 18.4207 53.7111C17.1003 53.7855 15.7708 53.7765 14.4493 53.7146C14.0654 53.6965 13.5783 53.4891 13.3377 53.2018C11.8875 51.4683 10.4956 49.6864 9.02667 47.8492C9.58021 47.4009 10.1207 46.9631 10.721 46.4775C11.1583 47.0189 11.5689 47.5252 11.9775 48.0334C12.3353 48.4782 12.6866 48.9286 13.0489 49.3694C13.6417 50.09 14.1107 51.0823 14.8755 51.4436C15.6435 51.8064 16.7113 51.5669 17.6447 51.5266C17.914 51.5151 18.2526 51.345 18.4247 51.1367C19.6752 49.624 20.892 48.0827 22.1797 46.475H22.1792Z" fill="white"/>
<path d="M57.2669 46.4724C57.8562 46.9464 58.3856 47.3721 58.9733 47.8452C58.4998 48.4374 58.0484 49.002 57.597 49.5661C56.6409 50.7607 55.713 51.98 54.7106 53.1343C54.4464 53.4383 53.9603 53.6904 53.5627 53.7115C52.2186 53.7825 50.8675 53.7719 49.5224 53.7165C49.1561 53.7014 48.6851 53.5163 48.4591 53.2455C46.9968 51.4934 45.5888 49.6959 44.1108 47.8487C44.6714 47.3958 45.2139 46.958 45.8127 46.4744C46.9248 47.8618 48.0576 49.1706 49.0645 50.5705C49.6226 51.3464 50.2536 51.5175 51.1639 51.5895C52.665 51.7082 53.6755 51.2634 54.5007 49.9797C55.2862 48.7575 56.2992 47.6816 57.2669 46.4729V46.4724Z" fill="white"/>
<path d="M26.5662 47.8467C27.155 47.3727 27.6985 46.9359 28.2726 46.4734C29.5257 48.0394 30.7464 49.542 31.9355 51.0687C32.2179 51.431 32.5132 51.5764 32.9681 51.5548C33.8548 51.513 34.8688 51.7868 35.5964 51.4396C36.3226 51.0934 36.7679 50.1514 37.326 49.4625C38.115 48.4893 38.8945 47.509 39.7263 46.4714C40.2929 46.9283 40.8354 47.3661 41.4322 47.8472C39.9392 49.709 38.4899 51.5483 36.9919 53.3467C36.7951 53.5827 36.3538 53.7105 36.0206 53.7211C34.6766 53.7624 33.3284 53.7759 31.9854 53.7146C31.6024 53.6969 31.1158 53.4881 30.8753 53.2008C29.428 51.4693 28.0381 49.6899 26.5657 47.8467H26.5662Z" fill="white"/>
<path d="M60.2887 51.5478C62.1098 51.5372 63.6039 53.0257 63.5989 54.8458C63.5943 56.6362 62.1239 58.1126 60.335 58.1237C58.5159 58.1347 57.0198 56.6432 57.0249 54.8241C57.0299 53.0337 58.4998 51.5584 60.2882 51.5478H60.2887ZM60.3144 53.7443C59.7201 53.7428 59.2229 54.2379 59.2214 54.8327C59.2199 55.4265 59.7155 55.9252 60.3093 55.9267C60.9016 55.9282 61.4013 55.4305 61.4028 54.8377C61.4043 54.2435 60.9087 53.7458 60.3144 53.7443Z" fill="white"/>
<path d="M16.4355 43.8709C18.2562 43.8623 19.7477 45.3533 19.7407 47.1744C19.7336 48.9643 18.2607 50.4382 16.4713 50.4468C14.6527 50.4553 13.1591 48.9618 13.1667 47.1422C13.1742 45.3523 14.6461 43.8794 16.4355 43.8714V43.8709ZM16.4501 48.2498C17.0424 48.2518 17.5426 47.7546 17.5441 47.1613C17.5456 46.5671 17.0505 46.0689 16.4567 46.0674C15.8624 46.0654 15.3647 46.5605 15.3627 47.1553C15.3607 47.7491 15.8563 48.2483 16.4496 48.2503L16.4501 48.2498Z" fill="white"/>
<path d="M34.0118 50.4467C32.1937 50.4538 30.7012 48.9588 30.7102 47.1392C30.7188 45.3498 32.1922 43.8779 33.9822 43.8714C35.8028 43.8643 37.2928 45.3568 37.2842 47.1779C37.2757 48.9673 35.8018 50.4402 34.0118 50.4472V50.4467ZM33.9776 46.0673C33.3833 46.0789 32.8952 46.5841 32.9068 47.1779C32.9179 47.7717 33.4246 48.2613 34.0169 48.2502C34.6097 48.2392 35.0998 47.7309 35.0882 47.1392C35.0766 46.5449 34.5709 46.0563 33.9781 46.0678L33.9776 46.0673Z" fill="white"/>
<path d="M51.5227 50.4468C49.7066 50.4387 48.2292 48.9296 48.2533 47.107C48.2765 45.3206 49.7645 43.8633 51.5575 43.8709C53.3746 43.8789 54.8515 45.3865 54.8274 47.2091C54.8037 48.995 53.3142 50.4548 51.5232 50.4462L51.5227 50.4468ZM52.6308 47.1815C52.6439 46.5887 52.1568 46.0804 51.563 46.0674C50.9702 46.0543 50.4625 46.5414 50.4494 47.1352C50.4363 47.7279 50.9234 48.2367 51.5167 48.2498C52.108 48.2628 52.6177 47.7742 52.6308 47.181V47.1815Z" fill="white"/>
<path d="M7.67607 51.5477C9.49519 51.5447 10.9822 53.0417 10.9691 54.8628C10.9565 56.6512 9.47808 58.1206 7.68764 58.1231C5.87003 58.1256 4.38202 56.6266 4.39511 54.8065C4.40769 53.0181 5.88513 51.5503 7.67607 51.5477ZM7.70073 55.9266C8.29352 55.9155 8.78365 55.4078 8.77258 54.816C8.76151 54.2218 8.25577 53.7332 7.66299 53.7442C7.06869 53.7553 6.58057 54.2605 6.59114 54.8543C6.60221 55.4481 7.10844 55.9377 7.70073 55.9271V55.9266Z" fill="white"/>
<path d="M43.8598 58.1231C42.0426 58.1206 40.5602 56.617 40.5783 54.7954C40.5959 53.0075 42.0784 51.5452 43.8703 51.5477C45.6889 51.5502 47.1704 53.0518 47.1523 54.8744C47.1342 56.6618 45.6502 58.1261 43.8598 58.1236V58.1231ZM43.8618 53.7437C43.267 53.7457 42.7728 54.2439 42.7748 54.8382C42.7768 55.4325 43.2755 55.9286 43.8683 55.9266C44.4611 55.9246 44.9583 55.4244 44.9558 54.8316C44.9537 54.2369 44.4556 53.7417 43.8618 53.7442V53.7437Z" fill="white"/>
<path d="M14.4534 13.7677C15.0633 13.3596 15.6279 12.9817 16.2735 12.549C19.1921 16.9243 22.0962 21.277 25.045 25.6972C24.4316 26.1108 23.8554 26.4998 23.2279 26.9235C20.2987 22.5315 17.3921 18.1733 14.4534 13.7677Z" fill="#F16650"/>
<path d="M51.7396 12.567C52.346 12.9681 52.9126 13.343 53.5663 13.7757C50.6461 18.1561 47.7431 22.5103 44.7927 26.936C44.1813 26.5299 43.6041 26.1465 42.9666 25.7233C45.9008 21.3228 48.8074 16.9645 51.7396 12.5675V12.567Z" fill="#F16650"/>
<path d="M27.6482 20.4024C28.241 19.955 28.7975 19.5359 29.3908 19.088C30.2881 20.2836 31.1299 21.447 32.0267 22.5662C32.2174 22.8042 32.5998 22.9838 32.9098 23.0115C33.6344 23.0759 34.3727 23.0769 35.0973 23.0115C35.4068 22.9833 35.7867 22.7981 35.9779 22.5586C36.8726 21.4405 37.713 20.2786 38.6027 19.0915C39.1925 19.5303 39.7374 19.9364 40.3544 20.3958C39.7153 21.2508 39.1054 22.0931 38.4678 22.9139C36.2723 25.7394 37.4211 25.2009 33.8564 25.212C30.6866 25.2221 31.6483 25.6578 29.6862 23.1262C29.0039 22.2456 28.3502 21.3429 27.6482 20.4024Z" fill="#F16650"/>
<path d="M49.8379 10.0444C50.2445 10.6528 50.6219 11.2174 51.0547 11.8645C47.7657 14.0585 44.5003 16.2369 41.1907 18.4449C40.7805 17.832 40.4026 17.2674 39.9734 16.6264C43.2614 14.4324 46.5283 12.252 49.8379 10.0439V10.0444Z" fill="#F16650"/>
<path d="M16.9503 11.8847C17.374 11.2507 17.7514 10.6861 18.1701 10.0591C21.4616 12.2561 24.7129 14.4259 28.0256 16.637C27.6205 17.2514 27.2396 17.8301 26.8204 18.4656C23.5208 16.2656 20.268 14.0968 16.9503 11.8847Z" fill="#F16650"/>
<path d="M36.1872 19.7694C36.1726 20.96 35.1773 21.9388 33.9862 21.9332C32.7704 21.9277 31.774 20.8966 31.8068 19.6784C31.839 18.4832 32.8424 17.5282 34.041 17.5508C35.2296 17.5735 36.2018 18.5784 36.1872 19.7694Z" fill="#F16650"/>
<path d="M66.9156 0.960083H0.728638V5.52465H66.9156V0.960083Z" fill="white"/>
<path d="M41.3537 27.5485H26.2905V33.1401H41.3537V27.5485Z" fill="white"/>
<path d="M66.9156 34.0529H1.29932V40.8995H66.9156V34.0529Z" fill="white"/>
<path d="M51.6525 48.4309C52.456 48.4309 53.1073 47.7796 53.1073 46.9761C53.1073 46.1727 52.456 45.5214 51.6525 45.5214C50.8491 45.5214 50.1978 46.1727 50.1978 46.9761C50.1978 47.7796 50.8491 48.4309 51.6525 48.4309Z" fill="white"/>
<path d="M60.2968 56.219C61.1002 56.219 61.7516 55.5677 61.7516 54.7642C61.7516 53.9608 61.1002 53.3094 60.2968 53.3094C59.4933 53.3094 58.842 53.9608 58.842 54.7642C58.842 55.5677 59.4933 56.219 60.2968 56.219Z" fill="white"/>
<path d="M43.8643 56.219C44.6677 56.219 45.3191 55.5677 45.3191 54.7642C45.3191 53.9608 44.6677 53.3094 43.8643 53.3094C43.0608 53.3094 42.4095 53.9608 42.4095 54.7642C42.4095 55.5677 43.0608 56.219 43.8643 56.219Z" fill="white"/>
<path d="M34.0219 48.4309C34.8253 48.4309 35.4767 47.7796 35.4767 46.9761C35.4767 46.1727 34.8253 45.5214 34.0219 45.5214C33.2184 45.5214 32.5671 46.1727 32.5671 46.9761C32.5671 47.7796 33.2184 48.4309 34.0219 48.4309Z" fill="white"/>
<path d="M16.6478 48.4309C17.4513 48.4309 18.1026 47.7796 18.1026 46.9761C18.1026 46.1727 17.4513 45.5214 16.6478 45.5214C15.8444 45.5214 15.1931 46.1727 15.1931 46.9761C15.1931 47.7796 15.8444 48.4309 16.6478 48.4309Z" fill="white"/>
<path d="M7.66146 56.219C8.46492 56.219 9.11626 55.5677 9.11626 54.7642C9.11626 53.9608 8.46492 53.3094 7.66146 53.3094C6.858 53.3094 6.20667 53.9608 6.20667 54.7642C6.20667 55.5677 6.858 56.219 7.66146 56.219Z" fill="white"/>
<path d="M27.4157 54.8422C27.4127 56.6326 25.9438 58.111 24.1553 58.1231C22.3362 58.1356 20.8386 56.6462 20.8422 54.8271C20.8457 53.0095 22.3493 51.5281 24.1709 51.5472C25.9594 51.5663 27.4192 53.0487 27.4162 54.8417L27.4157 54.8422ZM24.1473 53.7442C23.554 53.7336 23.0488 54.2222 23.0382 54.8165C23.0276 55.4093 23.5168 55.916 24.11 55.9266C24.7013 55.9371 25.2091 55.446 25.2196 54.8537C25.2302 54.2605 24.7411 53.7547 24.1473 53.7442Z" fill="white"/>
<path d="M24.0084 56.0478C24.8118 56.0478 25.4632 55.3965 25.4632 54.5931C25.4632 53.7896 24.8118 53.1383 24.0084 53.1383C23.2049 53.1383 22.5536 53.7896 22.5536 54.5931C22.5536 55.3965 23.2049 56.0478 24.0084 56.0478Z" fill="white"/>
<path d="M16.6977 55.5235C17.284 55.0515 17.8128 54.6253 18.4026 54.1503C19.3683 55.3555 20.3973 56.4625 21.2141 57.7084C22.0177 58.9347 22.9884 59.3579 24.4357 59.2674C25.4028 59.207 26.0651 59.0163 26.6493 58.195C27.626 56.8208 28.7386 55.5432 29.8543 54.1498C30.4133 54.5981 30.9558 55.0329 31.5607 55.518C30.7923 56.4816 30.1245 57.5011 29.2786 58.3415C27.7695 59.8405 27.1097 61.5449 27.3956 63.6739C27.5279 64.6612 27.4253 65.6807 27.4157 66.6856C27.4071 67.5843 27.0126 67.9854 26.1219 67.9924C24.8206 68.0025 23.5188 67.9995 22.217 67.9939C21.2287 67.9899 20.8442 67.6105 20.8412 66.6313C20.8356 64.8268 20.8548 63.0223 20.8246 61.2183C20.8195 60.9083 20.6917 60.547 20.5015 60.3025C19.2691 58.7169 18.0041 57.1564 16.6972 55.523L16.6977 55.5235ZM25.1839 65.7889V61.4639H23.086V65.7889H25.1839Z" fill="white"/>
<path d="M52.8799 55.5209C53.4817 55.0384 54.0121 54.6127 54.5883 54.1507C55.8338 55.7071 57.0525 57.2097 58.2437 58.7334C58.5219 59.0897 58.8078 59.2587 59.2712 59.2321C60.1795 59.1792 61.2156 59.4464 61.9654 59.0902C62.6906 58.7455 63.1248 57.7849 63.6824 57.0914C64.4543 56.1318 65.2228 55.1692 66.0405 54.1477C66.6076 54.6051 67.1511 55.0434 67.7449 55.5225C66.4939 57.0864 65.2831 58.6237 64.0417 60.1353C63.7171 60.5303 63.5833 60.9254 63.5913 61.4346C63.618 63.147 63.6044 64.8604 63.6004 66.5733C63.5979 67.6099 63.227 67.9898 62.212 67.9939C60.956 67.9989 59.7 67.9984 58.4444 67.9939C57.3837 67.9903 57.0254 67.6225 57.0234 66.5381C57.0203 64.7794 57.04 63.0207 57.0073 61.2625C57.0012 60.9314 56.8699 60.5459 56.6681 60.2848C55.4407 58.6987 54.1757 57.1418 52.8799 55.5209ZM61.3963 61.4583H59.2632V65.7476H61.3963V61.4583Z" fill="white"/>
<path d="M36.4333 55.5205C37.0311 55.0409 37.5615 54.6157 38.1417 54.1502C39.3555 55.6679 40.5506 57.1297 41.7045 58.6237C42.0426 59.0615 42.3848 59.2784 42.956 59.2346C43.817 59.1682 44.8018 59.4344 45.5153 59.0962C46.2037 58.7702 46.6179 57.8609 47.1472 57.2032C47.9479 56.2078 48.7439 55.2085 49.5934 54.1472C50.1585 54.6031 50.7015 55.0409 51.2978 55.521C50.1218 56.9928 48.9981 58.4536 47.81 59.8601C47.3224 60.4378 47.1135 61.0144 47.1387 61.7718C47.1925 63.3916 47.1598 65.0144 47.1533 66.6362C47.1498 67.5858 46.7628 67.9873 45.8404 67.9934C44.5159 68.0024 43.1915 68.0029 41.867 67.9934C40.9778 67.9863 40.5828 67.5843 40.5788 66.6825C40.5707 64.9012 40.5979 63.1193 40.5592 61.3385C40.5511 60.9661 40.4062 60.5334 40.1802 60.2395C38.972 58.6665 37.718 57.1292 36.4343 55.522L36.4333 55.5205ZM42.8025 61.4442V65.7612H44.9155V61.4442H42.8025Z" fill="white"/>
<path d="M0.249084 55.5209C0.846401 55.0443 1.3778 54.6201 1.96203 54.1542C3.12798 55.6125 4.28789 57.0149 5.38742 58.4626C5.81112 59.0207 6.27509 59.1731 6.96802 59.2617C8.73128 59.4866 9.92793 58.8979 10.8604 57.3847C11.5377 56.2852 12.4611 55.3372 13.2763 54.3228C13.3045 54.288 13.3438 54.2624 13.4429 54.1753C13.9738 54.6025 14.5167 55.0393 15.1146 55.5209C13.9838 56.9374 12.909 58.3494 11.7591 59.6975C11.1784 60.3783 10.9082 61.0647 10.9515 61.9735C11.0254 63.5228 10.9766 65.0787 10.9701 66.6316C10.9661 67.6099 10.5806 67.9898 9.59329 67.9943C8.29147 67.9998 6.99016 68.0029 5.68834 67.9928C4.79664 67.9858 4.40011 67.5852 4.39558 66.686C4.38702 65.0189 4.35734 63.3502 4.40967 61.6846C4.43231 60.9701 4.21493 60.4362 3.76857 59.9003C2.58652 58.4812 1.45127 57.0234 0.249084 55.5209ZM6.62885 61.429V65.752H8.72373V61.429H6.62885Z" fill="white"/>
<path d="M9.11625 60.9264H6.12061V66.2327H9.11625V60.9264Z" fill="white"/>
<path d="M25.4632 60.9264H22.4675V66.4893H25.4632V60.9264Z" fill="white"/>
<path d="M45.1485 61.183H42.4095V65.9755H45.1485V61.183Z" fill="white"/>
<path d="M62.0087 60.8408H58.4998V66.2327H62.0087V60.8408Z" fill="white"/>
</g>
<defs>
<clipPath id="clip0_555_92">
<rect width="68" height="68" fill="white"/>
</clipPath>
</defs>
</svg>
