<svg width="66" height="66" viewBox="0 0 66 66" fill="none" xmlns="http://www.w3.org/2000/svg">
<g clip-path="url(#clip0_552_21)">
<path d="M20.3638 66C20.3608 61.9829 20.2862 57.9648 20.386 53.9505C20.4374 51.8891 21.6268 50.4163 23.5296 49.6115C24.812 49.0695 26.1313 48.6128 27.4476 48.1561C27.6115 48.0989 27.9517 48.2123 28.0496 48.3558C29.4038 50.3426 30.7356 52.3439 32.051 54.3568C32.1906 54.5701 32.2381 54.8775 32.24 55.1422C32.2555 56.8177 32.2381 58.4932 32.2517 60.1687C32.2536 60.4373 32.274 60.7834 32.4349 60.9502C32.6055 61.1286 33.0552 61.2857 33.2016 61.1858C33.4546 61.0123 33.7057 60.639 33.7154 60.3413C33.7667 58.7744 33.7212 57.2046 33.758 55.6377C33.7677 55.2295 33.8753 54.7864 34.0624 54.4247C35.0899 52.4438 36.1697 50.4909 37.1991 48.511C37.4143 48.097 37.6121 48.0213 38.0444 48.1784C39.4344 48.6855 40.8535 49.1112 42.2368 49.6338C44.2733 50.4046 45.5422 51.9056 45.6013 54.0776C45.7089 58.0481 45.6275 62.0246 45.6256 65.9981H40.3417C40.3446 63.7447 40.3446 61.4903 40.3543 59.2369C40.3563 58.7405 40.1886 58.3633 39.6545 58.3458C39.0806 58.3284 38.8926 58.7085 38.8964 59.2379C38.911 61.4913 38.9158 63.7447 38.9246 65.9981H27.0677C27.0754 63.7447 27.0812 61.4913 27.0948 59.2379C27.0977 58.7085 26.9087 58.3284 26.3358 58.3458C25.7998 58.3623 25.635 58.7405 25.6369 59.2369C25.6466 61.4903 25.6466 63.7447 25.6505 65.9981H20.3667L20.3638 66Z" fill="white"/>
<path d="M0 53.3679C0.271413 52.7686 0.429415 52.0724 0.842351 51.5954C1.38712 50.9651 2.07631 50.4086 2.80525 50.0033C3.62143 49.5495 4.55781 49.3178 5.4273 48.9551C5.74815 48.8213 5.91778 48.8746 6.11843 49.1529C7.31168 50.8061 8.52917 52.4419 9.71951 54.098C9.85619 54.288 9.92695 54.5663 9.93179 54.8048C9.95312 55.8782 9.93761 56.9525 9.93955 58.0259C9.94149 58.7415 10.1829 59.1002 10.6627 59.1148C11.1628 59.1303 11.4246 58.7551 11.4284 58.0007C11.4343 56.9487 11.4246 55.8957 11.4391 54.8436C11.442 54.6158 11.4566 54.3491 11.5719 54.1688C12.707 52.4011 13.8654 50.6481 15.0828 48.7913C16.4922 49.3643 17.8978 49.9247 19.2927 50.5104C19.7075 50.6849 19.8306 50.9516 19.565 51.418C19.0115 52.3895 18.8477 53.4745 18.8468 54.5838C18.8458 57.096 18.8468 59.6093 18.8468 62.1216C18.8468 62.3533 18.8468 62.5851 18.8468 62.906H0C0 59.7266 0 56.5472 0 53.3669V53.3679Z" fill="white"/>
<path d="M21.1877 5.75269C22.1251 4.79762 23.0101 3.89587 23.9319 2.95728C24.7054 3.42367 25.5022 3.88036 26.2738 4.37583C26.7168 4.6609 27.1075 4.68999 27.5912 4.44468C28.2183 4.12567 28.8794 3.85612 29.5492 3.64086C30.0436 3.48185 30.2917 3.19387 30.4022 2.70906C30.6058 1.81216 30.8355 0.922053 31.0604 0.00285405C32.2808 0.00285405 33.4605 -0.0116902 34.6392 0.0222464C34.7855 0.0261249 35.0036 0.26756 35.0541 0.439182C35.2877 1.24106 35.4321 2.07202 35.6996 2.86129C35.7995 3.15411 36.1048 3.44791 36.3917 3.59335C37.077 3.94048 37.7924 4.24591 38.5262 4.47183C38.8684 4.57752 39.3385 4.57461 39.6497 4.4185C40.4891 3.99865 41.2733 3.47021 42.0546 2.99898C42.9784 3.93854 43.8779 4.85289 44.8104 5.80117C44.3703 6.52548 43.9079 7.32154 43.4078 8.09238C43.1305 8.51902 43.1267 8.89523 43.3486 9.35289C43.6753 10.0248 43.8905 10.753 44.2298 11.4182C44.3752 11.7032 44.6776 12.0077 44.9723 12.0998C45.8873 12.3878 46.8324 12.5798 47.7901 12.8144V16.6978C46.878 16.9256 45.9542 17.1767 45.0198 17.3813C44.5661 17.4802 44.3325 17.7188 44.1774 18.1502C43.9254 18.8542 43.5561 19.5193 43.3351 20.231C43.2284 20.5743 43.2275 21.0465 43.3835 21.3558C43.8071 22.1926 44.3403 22.9731 44.7891 23.7081C43.8498 24.6593 42.9493 25.5727 41.9867 26.5481C41.7318 26.3076 41.4216 26.0778 41.188 25.786C40.0093 24.3151 38.5291 23.3125 36.7087 22.8112C36.5042 22.755 36.2996 22.6813 36.1116 22.5843C31.7128 20.3096 26.5094 21.8755 24.1306 26.1932C24.0802 26.2844 24.0221 26.3716 23.9978 26.4104C23.1022 25.4941 22.2123 24.5827 21.244 23.5917C21.6171 22.976 22.0882 22.1664 22.5923 21.3781C22.8511 20.9747 22.8753 20.6131 22.666 20.1748C22.3432 19.4999 22.0495 18.8067 21.8033 18.1008C21.6501 17.6606 21.3903 17.4308 20.9522 17.3319C20.1583 17.1525 19.3625 16.9702 18.5812 16.7453C18.4164 16.6977 18.1935 16.4631 18.1896 16.3089C18.1566 15.1522 18.1712 13.9945 18.1712 12.7979C19.1095 12.5662 20.0177 12.3286 20.9318 12.1221C21.3971 12.0174 21.6637 11.7779 21.8226 11.3135C22.0572 10.626 22.3548 9.95793 22.6698 9.30247C22.8763 8.87196 22.887 8.5035 22.6253 8.09529C22.128 7.3196 21.6608 6.52451 21.1906 5.75269H21.1877ZM32.9584 20.9166C36.382 20.936 39.1708 18.1851 39.1815 14.776C39.1931 11.3629 36.447 8.58204 33.0291 8.54616C29.6452 8.51126 26.8215 11.3057 26.807 14.7042C26.7924 18.126 29.5356 20.8962 32.9584 20.9156V20.9166Z" fill="#F16650"/>
<path d="M65.9322 62.8642H47.1407V62.1476C47.1407 59.9563 47.1193 57.765 47.1474 55.5746C47.1688 53.9408 47.0321 52.3555 46.0308 50.839C46.562 50.5239 47.0263 50.1864 47.54 49.9595C48.3824 49.5882 49.2635 49.306 50.1146 48.9511C50.4354 48.8173 50.606 48.8736 50.8057 49.1509C51.999 50.805 53.2184 52.4398 54.4068 54.0979C54.5541 54.3034 54.6278 54.604 54.6326 54.8629C54.6569 55.9576 54.651 57.0542 54.6365 58.1489C54.6297 58.6667 54.78 59.0526 55.348 59.1069C55.8181 59.1515 56.0915 58.785 56.0963 58.1295C56.1041 57.0339 56.0934 55.9382 56.1089 54.8435C56.1118 54.6166 56.137 54.3519 56.2543 54.1706C57.3923 52.4039 58.5516 50.6509 59.7497 48.827C61.038 49.3099 62.3592 49.6997 63.5825 50.2911C65.0869 51.0184 65.9234 52.3409 65.9641 54.0067C66.0339 56.8836 65.9855 59.7624 65.9835 62.6412C65.9835 62.7013 65.9574 62.7614 65.9331 62.8642H65.9322Z" fill="white"/>
<path d="M35.056 29.1099C36.5235 31.8015 38.6066 33.7766 41.3082 35.0614C41.2345 38.8759 38.1898 42.4596 34.4618 43.1558C30.6988 43.8587 26.9126 41.7585 25.3927 38.0575C25.0389 37.1955 24.8857 36.2492 24.655 35.3377C24.6143 35.1768 24.6065 34.9877 24.6482 34.8277C25.2201 32.6189 27.2218 31.1538 29.4348 31.3128C32.0646 31.5019 33.1648 31.0801 35.056 29.1099Z" fill="white"/>
<path d="M45.8068 34.4922C45.5693 31.9838 45.8989 29.7333 47.5022 27.7921C49.8857 24.9065 54.43 23.4957 58.0543 25.7327C58.285 25.8752 58.5671 25.9469 58.8337 26.0158C62.1905 26.8836 64.5178 29.8283 64.5663 33.2986C64.5847 34.5989 64.5692 35.9001 64.5692 37.3215C64.3366 37.1276 64.1844 37.0239 64.0603 36.8939C61.635 34.3749 59.202 31.8626 56.7971 29.3251C56.0119 28.497 55.7454 28.4767 55.0319 29.3678C52.6619 32.329 49.5445 33.9366 45.8068 34.4903V34.4922Z" fill="white"/>
<path d="M1.11087 34.4166C0.445906 28.9392 4.40176 24.4673 9.73019 24.6428C10.3244 24.6622 10.9477 24.7281 11.5002 24.9289C12.9629 25.4621 14.4538 25.9693 15.8263 26.6906C18.3796 28.0316 19.7308 30.2327 19.8549 33.126C19.913 34.4738 19.8646 35.8254 19.8646 37.3254C19.6135 37.1044 19.439 36.9705 19.2878 36.8135C16.9071 34.34 14.5187 31.8752 12.1574 29.3833C11.3073 28.4864 11.0698 28.467 10.3128 29.4114C8.09104 32.1806 5.17141 33.7553 1.7167 34.403C1.59069 34.4263 1.4608 34.434 1.33285 34.4408C1.27081 34.4437 1.2078 34.4272 1.11087 34.4166Z" fill="white"/>
<path d="M49.6434 37.4525C49.6434 37.2809 49.6337 37.1083 49.6454 36.9377C49.7219 35.7159 49.9982 34.7483 51.3766 34.2179C52.9188 33.6245 54.1799 32.492 55.3199 31.2731C55.8152 30.7428 56.0653 30.7583 56.5742 31.3022C57.7761 32.588 58.9578 33.895 60.2024 35.1381C60.7423 35.6772 61.0118 36.2512 61.036 36.9997C61.099 38.9428 60.6153 40.7085 59.3184 42.1823C56.9813 44.8352 53.1544 44.6413 51.0325 41.7867C50.0767 40.501 49.6657 39.0369 49.6454 37.4525H49.6434Z" fill="white"/>
<path d="M16.4758 37.4263C16.3023 39.1764 15.8477 40.7588 14.7106 42.0911C12.4579 44.7323 8.72307 44.7226 6.54594 42.0252C4.93297 40.0268 4.58207 37.7414 5.2829 35.2921C5.34785 35.0652 5.57467 34.8122 5.79083 34.7133C7.67037 33.8542 9.32502 32.6906 10.7238 31.1703C11.0824 30.7805 11.413 30.8038 11.7581 31.1703C13.1713 32.6703 14.6282 34.1315 15.9669 35.6955C16.3236 36.1115 16.3149 36.8406 16.4748 37.4253L16.4758 37.4263Z" fill="white"/>
<path d="M24.6501 31.8375C24.3535 28.7618 25.0999 26.1826 27.6405 24.3995C30.1269 22.6532 32.7702 22.5204 35.4795 23.9312C35.7238 24.0582 35.9913 24.1542 36.2579 24.223C39.2609 24.9949 41.3236 27.5866 41.3837 30.6943C41.4002 31.5718 41.3866 32.4493 41.3866 33.4984C40.7081 33.0388 40.1091 32.6791 39.5624 32.2534C38.0444 31.0734 36.8938 29.5928 36.0883 27.8455C35.5765 26.7353 35.1209 26.6713 34.3386 27.6293C33.6145 28.5175 32.8972 29.427 31.7234 29.7198C31.1708 29.8575 30.5602 29.9651 30.0105 29.873C27.9914 29.5356 26.0566 30.2909 24.6511 31.8375H24.6501Z" fill="white"/>
<path d="M28.8609 43.8083C31.3521 44.9457 33.7968 45.033 36.3713 44.1535C36.2938 45.4606 36.6214 46.6833 35.9012 47.8846C34.8902 49.5727 34.0226 51.3471 33.0553 53.1564C32.7926 52.7734 32.5628 52.4467 32.3409 52.1131C31.3056 50.5617 30.2539 49.021 29.2535 47.4473C29.0296 47.0944 28.9104 46.6319 28.8774 46.2101C28.8183 45.4431 28.8609 44.6694 28.8609 43.8083Z" fill="white"/>
<path d="M10.6539 52.8539C9.39861 51.1445 8.20149 49.5223 7.01793 47.8895C6.91324 47.745 6.8483 47.5385 6.84539 47.3601C6.82891 46.3953 6.83763 45.4295 6.83763 44.5908C7.96885 44.8982 9.0894 45.2986 10.2458 45.4887C11.4526 45.6865 12.6236 45.3355 13.8498 44.7178C13.6879 46.2857 14.2259 47.7867 13.1189 49.1558C12.2087 50.2825 11.4982 51.5711 10.6549 52.8539H10.6539Z" fill="white"/>
<path d="M51.5734 44.4318C54.6918 45.827 55.6272 45.8755 58.5158 44.7702C58.5158 45.8377 58.5207 46.8742 58.509 47.9108C58.5081 48.0271 58.4257 48.1522 58.3578 48.2569C57.373 49.7647 56.3833 51.2705 55.3519 52.8413C55.0601 52.4544 54.7926 52.1063 54.5319 51.7534C54.0346 51.0804 53.5402 50.4046 53.0468 49.7288C51.9218 48.1897 51.4306 46.424 51.5734 44.4318Z" fill="white"/>
<path d="M5.5107 44.6887C3.42567 44.7721 1.51414 43.1208 1.1584 41.1215C1.10217 40.8054 1.06049 40.4825 1.05855 40.1625C1.04789 38.7915 1.05371 37.4204 1.05371 36.0184C1.91641 35.8448 2.73162 35.6809 3.63601 35.4987C3.61469 35.7391 3.60499 35.9418 3.57688 36.1425C3.24828 38.4773 3.78335 40.5853 5.05996 42.574C5.41377 43.1247 5.36336 43.9353 5.50973 44.6887H5.5107Z" fill="white"/>
<path d="M50.0254 44.6868C48.2176 44.7906 46.2944 43.246 45.9038 41.3213C45.7439 40.5339 45.7768 39.7049 45.7574 38.8933C45.7351 37.9528 45.7526 37.0113 45.7526 36.0184C46.6056 35.8449 47.4354 35.6752 48.1846 35.5229C48.1846 36.2986 48.1691 37.0821 48.1876 37.8655C48.2244 39.446 48.6364 40.9421 49.5718 42.2056C50.1747 43.021 50.0157 43.8365 50.0254 44.6878V44.6868Z" fill="white"/>
<path d="M15.3775 44.7111C15.2301 44.0207 15.3794 43.5127 15.8447 42.9881C17.0612 41.6161 17.6641 39.96 17.794 38.1313C17.8047 37.9819 17.8173 37.8326 17.8318 37.6843C17.8338 37.6688 17.857 37.6562 17.9385 37.5747C18.5511 38.1478 19.2461 38.6636 19.7472 39.3258C19.9789 39.6322 19.8762 40.2286 19.8471 40.6891C19.7055 42.9435 17.5982 44.842 15.3775 44.7111Z" fill="white"/>
<path d="M62.6151 37.5669C63.0183 37.9383 63.3644 38.3319 63.7822 38.6238C64.482 39.1125 64.6381 39.7427 64.576 40.5572C64.3987 42.9008 62.2923 44.8827 60.0628 44.6994C59.9533 44.1021 59.9843 43.597 60.4593 43.0772C61.733 41.6849 62.334 39.9803 62.4968 38.1138C62.5094 37.9644 62.5172 37.8151 62.5298 37.6658C62.5308 37.6513 62.553 37.6377 62.6161 37.5669H62.6151Z" fill="white"/>
<path d="M32.9845 10.0404C35.5978 10.0375 37.7081 12.1299 37.7168 14.7334C37.7255 17.3135 35.5881 19.4564 33.002 19.4612C30.4158 19.4661 28.2765 17.3368 28.2687 14.7518C28.2609 12.16 30.3789 10.0443 32.9835 10.0414L32.9845 10.0404Z" fill="#F16650"/>
</g>
<defs>
<clipPath id="clip0_552_21">
<rect width="66" height="66" fill="white"/>
</clipPath>
</defs>
</svg>
