<svg width="62" height="62" viewBox="0 0 62 62" fill="none" xmlns="http://www.w3.org/2000/svg">
<path d="M30.1451 6.23392L38.8069 6.23271C38.814 6.23271 38.8207 6.2299 38.8257 6.22491C38.8307 6.21991 38.8335 6.21313 38.8335 6.20607C38.8481 5.10008 38.8469 3.97714 38.8299 2.83724C38.8234 2.40453 38.8723 2.08363 38.9764 1.87454C39.2138 1.3938 39.6824 1.20126 40.2092 1.20611C41.2473 1.21337 42.2088 1.21378 43.0936 1.20732C43.9376 1.20126 44.4595 1.7256 44.4547 2.53693C44.4458 3.76401 44.4438 4.9802 44.4486 6.18548C44.4486 6.19801 44.4536 6.21002 44.4625 6.21888C44.4713 6.22773 44.4833 6.23271 44.4959 6.23271C45.9216 6.23513 47.3747 6.23594 48.8553 6.23513C50.8739 6.23392 52.5728 7.51025 53.1226 9.43079C53.2445 9.85866 53.3018 10.3935 53.2945 11.0353C53.28 12.2341 53.2788 13.4281 53.2909 14.6172C53.2917 14.6657 53.2679 14.6899 53.2195 14.6899H1.24482C1.23615 14.6899 1.22783 14.6863 1.2217 14.68C1.21557 14.6736 1.21212 14.665 1.21212 14.656C1.2089 13.265 1.21051 11.87 1.21697 10.471C1.22423 8.56255 2.62408 6.91689 4.40173 6.39861C4.81991 6.27671 5.4052 6.21939 6.15759 6.22665C7.40567 6.23957 8.68644 6.23997 9.9999 6.22786C10.0298 6.22706 10.0447 6.21212 10.0447 6.18306C10.0568 5.05447 10.0556 3.93516 10.0411 2.82513C10.0354 2.38273 10.0782 2.07233 10.1694 1.89392C10.4431 1.36111 10.9129 1.19763 11.4966 1.20368C12.5429 1.21337 13.4721 1.21539 14.2842 1.20974C15.2311 1.20247 15.6707 1.76919 15.6635 2.64349C15.6538 3.88188 15.6526 5.06173 15.6598 6.18306C15.6598 6.18942 15.6611 6.19572 15.6635 6.2016C15.6659 6.20747 15.6695 6.21281 15.674 6.21731C15.6785 6.22181 15.6838 6.22538 15.6897 6.22781C15.6956 6.23024 15.7019 6.2315 15.7083 6.2315L24.3943 6.23392C24.4072 6.23392 24.4195 6.22882 24.4286 6.21973C24.4376 6.21065 24.4427 6.19833 24.4427 6.18548C24.4436 4.9471 24.4444 3.72042 24.4452 2.50544C24.4452 1.77767 24.9635 1.194 25.6912 1.2049C26.5574 1.21781 27.5036 1.2162 28.5297 1.20005C28.8881 1.1944 29.167 1.24001 29.3664 1.33689C30.0046 1.64447 30.0772 2.21966 30.0676 2.87478C30.0522 3.99207 30.0502 5.08393 30.0615 6.15036C30.0623 6.20607 30.0902 6.23392 30.1451 6.23392Z" fill="white"/>
<path d="M50.8001 33.4824C50.4004 33.2895 49.9471 33.1918 49.4402 33.1894C48.5957 33.1853 47.7905 33.1837 47.0243 33.1845C45.1619 33.1882 43.7439 34.5589 43.6931 36.4214C43.6834 36.7604 43.3225 36.9263 43.0682 36.6878C41.7301 35.4405 39.7878 35.4139 38.4691 36.7059C37.7813 37.3808 37.1564 38.0105 36.5945 38.595C35.3836 39.8568 35.5108 41.8088 36.6963 43.0755C36.9045 43.2995 36.7762 43.6761 36.4589 43.6858C34.6086 43.7427 33.1833 45.1195 33.1918 46.9832C33.1942 47.5604 33.189 48.1303 33.1761 48.693C33.1599 49.3921 33.2071 49.9427 33.3177 50.3447C33.6051 51.3894 34.3269 52.1345 35.4829 52.5801C35.5039 52.5882 35.5031 52.5922 35.4805 52.5922C25.5581 52.5922 15.6284 52.5922 5.69142 52.5922C3.64857 52.5922 1.95325 51.3486 1.37806 49.4111C1.26262 49.022 1.2049 48.4379 1.2049 47.6589C1.21135 37.4006 1.21337 27.24 1.21095 17.1771C1.21095 17.1336 1.23275 17.1118 1.27634 17.1118H53.257C53.2647 17.1118 53.2721 17.1148 53.2776 17.1203C53.283 17.1257 53.2861 17.1331 53.2861 17.1408V36.6066C53.2861 36.7568 53.2118 36.8222 53.0633 36.8028L53.0209 36.798C52.8288 36.7737 52.7279 36.6648 52.7182 36.471C52.6479 35.0631 52.0086 34.0669 50.8001 33.4824ZM13.6582 23.4062C13.6582 23.2447 13.594 23.0897 13.4798 22.9755C13.3655 22.8613 13.2106 22.7971 13.0491 22.7971H9.87157C9.71003 22.7971 9.5551 22.8613 9.44088 22.9755C9.32665 23.0897 9.26247 23.2447 9.26247 23.4062V26.5861C9.26247 26.7477 9.32665 26.9026 9.44088 27.0168C9.5551 27.1311 9.71003 27.1952 9.87157 27.1952H13.0491C13.2106 27.1952 13.3655 27.1311 13.4798 27.0168C13.594 26.9026 13.6582 26.7477 13.6582 26.5861V23.4062ZM24.1845 23.4048C24.1844 23.3245 24.1684 23.245 24.1375 23.1709C24.1067 23.0967 24.0615 23.0294 24.0046 22.9727C23.9478 22.916 23.8803 22.8711 23.806 22.8405C23.7318 22.8099 23.6522 22.7942 23.5719 22.7943L20.3968 22.7999C20.3165 22.8 20.237 22.816 20.1629 22.8468C20.0888 22.8777 20.0214 22.9229 19.9647 22.9797C19.9081 23.0366 19.8631 23.1041 19.8325 23.1784C19.8019 23.2526 19.7862 23.3322 19.7864 23.4125L19.7919 26.5875C19.7921 26.6679 19.808 26.7473 19.8389 26.8215C19.8697 26.8956 19.9149 26.963 19.9718 27.0196C20.0287 27.0763 20.0962 27.1213 20.1704 27.1519C20.2447 27.1825 20.3242 27.1981 20.4045 27.198L23.5796 27.1925C23.6599 27.1923 23.7394 27.1764 23.8135 27.1455C23.8877 27.1146 23.955 27.0695 24.0117 27.0126C24.0684 26.9557 24.1133 26.8882 24.1439 26.814C24.1745 26.7397 24.1902 26.6602 24.1901 26.5799L24.1845 23.4048ZM34.714 23.4147C34.714 23.3337 34.698 23.2536 34.667 23.1788C34.6361 23.104 34.5907 23.0361 34.5334 22.9788C34.4762 22.9216 34.4082 22.8762 34.3335 22.8452C34.2587 22.8143 34.1785 22.7983 34.0976 22.7983H30.9274C30.8464 22.7983 30.7663 22.8143 30.6915 22.8452C30.6167 22.8762 30.5488 22.9216 30.4915 22.9788C30.4343 23.0361 30.3889 23.104 30.3579 23.1788C30.3269 23.2536 30.311 23.3337 30.311 23.4147V26.5801C30.311 26.661 30.3269 26.7412 30.3579 26.8159C30.3889 26.8907 30.4343 26.9587 30.4915 27.0159C30.5488 27.0731 30.6167 27.1185 30.6915 27.1495C30.7663 27.1805 30.8464 27.1964 30.9274 27.1964H34.0976C34.1785 27.1964 34.2587 27.1805 34.3335 27.1495C34.4082 27.1185 34.4762 27.0731 34.5334 27.0159C34.5907 26.9587 34.6361 26.8907 34.667 26.8159C34.698 26.7412 34.714 26.661 34.714 26.5801V23.4147ZM45.2346 23.405C45.2346 23.2438 45.1705 23.0892 45.0565 22.9752C44.9425 22.8612 44.7879 22.7971 44.6267 22.7971H41.4468C41.2855 22.7971 41.1309 22.8612 41.0169 22.9752C40.9029 23.0892 40.8389 23.2438 40.8389 23.405V26.5873C40.8389 26.6672 40.8546 26.7462 40.8852 26.82C40.9157 26.8937 40.9605 26.9607 41.0169 27.0172C41.0734 27.0736 41.1404 27.1184 41.2141 27.149C41.2879 27.1795 41.3669 27.1952 41.4468 27.1952H44.6267C44.7065 27.1952 44.7856 27.1795 44.8593 27.149C44.9331 27.1184 45.0001 27.0736 45.0565 27.0172C45.113 26.9607 45.1578 26.8937 45.1883 26.82C45.2189 26.7462 45.2346 26.6672 45.2346 26.5873V23.405ZM13.6622 33.1859C13.6623 33.1061 13.6467 33.027 13.6163 32.9532C13.5859 32.8794 13.5412 32.8123 13.4849 32.7558C13.4285 32.6992 13.3616 32.6543 13.2879 32.6237C13.2142 32.593 13.1352 32.5771 13.0553 32.577L9.87541 32.5714C9.71419 32.5712 9.55946 32.6349 9.44527 32.7487C9.33107 32.8625 9.26675 33.017 9.26647 33.1783L9.26091 36.3606C9.26077 36.4404 9.27636 36.5195 9.30678 36.5933C9.3372 36.6671 9.38186 36.7342 9.4382 36.7908C9.49455 36.8473 9.56149 36.8922 9.63519 36.9229C9.70889 36.9536 9.78791 36.9694 9.86774 36.9696L13.0477 36.9751C13.2089 36.9754 13.3636 36.9116 13.4778 36.7978C13.592 36.684 13.6563 36.5295 13.6566 36.3683L13.6622 33.1859ZM24.1845 33.1807C24.1844 33.1005 24.1684 33.0212 24.1376 32.9472C24.1068 32.8732 24.0618 32.806 24.005 32.7494C23.9482 32.6929 23.8809 32.648 23.8068 32.6175C23.7327 32.587 23.6533 32.5713 23.5731 32.5714L20.3956 32.577C20.3155 32.5771 20.2361 32.5931 20.1622 32.6239C20.0882 32.6547 20.021 32.6997 19.9644 32.7565C19.9078 32.8133 19.863 32.8806 19.8324 32.9547C19.8019 33.0288 19.7862 33.1082 19.7864 33.1884L19.7919 36.3659C19.7921 36.446 19.808 36.5253 19.8388 36.5993C19.8696 36.6733 19.9147 36.7405 19.9714 36.7971C20.0282 36.8537 20.0956 36.8985 20.1697 36.9291C20.2438 36.9596 20.3232 36.9753 20.4033 36.9751L23.5808 36.9696C23.661 36.9694 23.7403 36.9535 23.8143 36.9227C23.8883 36.8919 23.9555 36.8468 24.012 36.7901C24.0686 36.7333 24.1135 36.6659 24.144 36.5918C24.1745 36.5177 24.1902 36.4383 24.1901 36.3582L24.1845 33.1807ZM34.714 33.1906C34.714 33.1096 34.698 33.0295 34.667 32.9547C34.6361 32.8799 34.5907 32.812 34.5334 32.7547C34.4762 32.6975 34.4082 32.6521 34.3335 32.6211C34.2587 32.5902 34.1785 32.5742 34.0976 32.5742H30.9274C30.7639 32.5742 30.6071 32.6392 30.4915 32.7547C30.3759 32.8703 30.311 33.0271 30.311 33.1906V36.356C30.311 36.4369 30.3269 36.5171 30.3579 36.5918C30.3889 36.6666 30.4343 36.7346 30.4915 36.7918C30.5488 36.849 30.6167 36.8944 30.6915 36.9254C30.7663 36.9564 30.8464 36.9723 30.9274 36.9723H34.0976C34.1785 36.9723 34.2587 36.9564 34.3335 36.9254C34.4082 36.8944 34.4762 36.849 34.5334 36.7918C34.5907 36.7346 34.6361 36.6666 34.667 36.5918C34.698 36.5171 34.714 36.4369 34.714 36.356V33.1906ZM13.6594 42.8175C13.6594 42.657 13.5956 42.503 13.482 42.3894C13.3685 42.2759 13.2145 42.2121 13.0539 42.2121H9.86915C9.70857 42.2121 9.55457 42.2759 9.44102 42.3894C9.32747 42.503 9.26368 42.657 9.26368 42.8175V45.9999C9.26368 46.1605 9.32747 46.3145 9.44102 46.428C9.55457 46.5416 9.70857 46.6053 9.86915 46.6053H13.0539C13.2145 46.6053 13.3685 46.5416 13.482 46.428C13.5956 46.3145 13.6594 46.1605 13.6594 45.9999V42.8175ZM24.1861 42.8187C24.1861 42.7391 24.1704 42.6602 24.1399 42.5866C24.1094 42.513 24.0647 42.4461 24.0084 42.3898C23.952 42.3334 23.8852 42.2887 23.8116 42.2583C23.7379 42.2278 23.6591 42.2121 23.5794 42.2121H20.397C20.3174 42.2121 20.2385 42.2278 20.1649 42.2583C20.0913 42.2887 20.0244 42.3334 19.9681 42.3898C19.9117 42.4461 19.867 42.513 19.8365 42.5866C19.8061 42.6602 19.7904 42.7391 19.7904 42.8187V45.9987C19.7904 46.1596 19.8543 46.3139 19.9681 46.4277C20.0818 46.5414 20.2361 46.6053 20.397 46.6053H23.5794C23.7403 46.6053 23.8946 46.5414 24.0084 46.4277C24.1221 46.3139 24.1861 46.1596 24.1861 45.9987V42.8187Z" fill="white"/>
<path d="M55.0044 57.9639C54.1689 57.1405 52.8635 56.931 51.8184 57.4808C50.8481 57.991 50.3383 58.8059 50.289 59.9256C50.2672 60.4294 49.9354 60.789 49.4196 60.789C48.6074 60.7898 47.7929 60.7894 46.9759 60.7878C46.6514 60.7878 46.4047 60.6534 46.236 60.3846C46.0738 60.1267 46.1258 59.8336 46.0786 59.5478C45.9575 58.8075 45.631 58.2315 45.099 57.8198C44.1512 57.0876 43.1372 56.9742 42.0571 57.4795C41.8561 57.574 41.672 57.704 41.5049 57.8695C41.1041 58.2703 40.5834 58.389 40.1547 57.9603C39.5799 57.3847 39.0059 56.8103 38.4327 56.2371C38.0755 55.8787 38.0864 55.3834 38.4231 55.0201C39.8992 53.4193 39.2332 51.0265 37.1855 50.3871C37.0022 50.3298 36.8109 50.3015 36.6115 50.3023C36.0605 50.306 35.6161 50.0214 35.6125 49.422C35.606 48.6211 35.6052 47.8239 35.61 47.0304C35.6125 46.5395 35.8321 46.2429 36.2688 46.1403C36.5255 46.0798 36.8016 46.1113 37.0644 46.0422C38.9244 45.553 39.7381 43.6276 38.8578 41.9444C38.7028 41.649 38.4267 41.4431 38.2729 41.1585C38.0759 40.7953 38.1462 40.4465 38.4836 40.1123C39.0568 39.5448 39.6094 38.991 40.1414 38.4509C40.495 38.0912 41.0048 38.0694 41.3741 38.4194C42.1733 39.1786 43.3092 39.4535 44.3276 39.0285C45.4602 38.5562 46.0564 37.6892 46.1161 36.4274C46.1379 35.9672 46.4734 35.6185 46.9372 35.6137C47.7525 35.604 48.5752 35.6028 49.405 35.61C49.9475 35.6137 50.2733 35.9745 50.2927 36.4879C50.3702 38.5453 52.35 39.7429 54.21 38.9788C54.4878 38.865 54.7287 38.704 54.933 38.4957C55.3011 38.1203 55.8327 38.0319 56.225 38.423C56.7619 38.955 57.3363 39.5274 57.9482 40.1401C58.3066 40.4986 58.3297 41.0108 57.9809 41.3741C56.3728 43.0537 57.3452 45.8933 59.698 46.0919C59.803 46.1008 59.9111 46.1105 60.0225 46.121C60.4888 46.1645 60.7891 46.5218 60.7903 46.9819C60.7903 47.8183 60.7891 48.6361 60.7866 49.4353C60.7854 50.0299 60.3253 50.2999 59.7719 50.306C59.4013 50.3108 59.0437 50.404 58.699 50.5857C57.2313 51.3631 56.6682 53.28 57.6963 54.6835C57.8683 54.9184 58.1165 55.1158 58.1977 55.4028C58.2836 55.7079 58.1916 56.0143 57.9712 56.2347C57.3924 56.8135 56.8144 57.3907 56.2372 57.9663C55.8787 58.3236 55.358 58.3127 55.0044 57.9639ZM53.469 48.1989C53.469 46.8012 52.9137 45.4608 51.9254 44.4725C50.9371 43.4842 49.5966 42.9289 48.199 42.9289C46.8013 42.9289 45.4608 43.4842 44.4725 44.4725C43.4842 45.4608 42.929 46.8012 42.929 48.1989C42.929 49.5966 43.4842 50.9371 44.4725 51.9254C45.4608 52.9137 46.8013 53.4689 48.199 53.4689C49.5966 53.4689 50.9371 52.9137 51.9254 51.9254C52.9137 50.9371 53.469 49.5966 53.469 48.1989Z" fill="#F16650"/>
</svg>
