<svg width="17" height="16" viewBox="0 0 17 16" fill="none" xmlns="http://www.w3.org/2000/svg">
<path d="M8.34501 4.23691C10.5106 4.23691 12.2981 6.02441 12.2981 8.19004C12.2981 10.39 10.5106 12.1432 8.34501 12.1432C6.14501 12.1432 4.39189 10.39 4.39189 8.19004C4.39189 6.02441 6.14501 4.23691 8.34501 4.23691ZM8.34501 10.7682C9.75439 10.7682 10.8888 9.63379 10.8888 8.19004C10.8888 6.78066 9.75439 5.64629 8.34501 5.64629C6.90126 5.64629 5.76689 6.78066 5.76689 8.19004C5.76689 9.63379 6.93564 10.7682 8.34501 10.7682ZM13.3638 4.09941C13.3638 4.61504 12.9513 5.02754 12.4356 5.02754C11.92 5.02754 11.5075 4.61504 11.5075 4.09941C11.5075 3.58379 11.92 3.17129 12.4356 3.17129C12.9513 3.17129 13.3638 3.58379 13.3638 4.09941ZM15.9763 5.02754C16.045 6.29941 16.045 10.115 15.9763 11.3869C15.9075 12.6244 15.6325 13.69 14.7388 14.6182C13.845 15.5119 12.745 15.7869 11.5075 15.8557C10.2356 15.9244 6.42001 15.9244 5.14814 15.8557C3.91064 15.7869 2.84501 15.5119 1.91689 14.6182C1.02314 13.69 0.748138 12.6244 0.679388 11.3869C0.610638 10.115 0.610638 6.29941 0.679388 5.02754C0.748138 3.79004 1.02314 2.69004 1.91689 1.79629C2.84501 0.902539 3.91064 0.627539 5.14814 0.558789C6.42001 0.490039 10.2356 0.490039 11.5075 0.558789C12.745 0.627539 13.845 0.902539 14.7388 1.79629C15.6325 2.69004 15.9075 3.79004 15.9763 5.02754ZM14.3263 12.7275C14.7388 11.7307 14.6356 9.32441 14.6356 8.19004C14.6356 7.09004 14.7388 4.68379 14.3263 3.65254C14.0513 2.99941 13.5356 2.44941 12.8825 2.20879C11.8513 1.79629 9.44501 1.89941 8.34501 1.89941C7.21064 1.89941 4.80439 1.79629 3.80751 2.20879C3.12001 2.48379 2.60439 2.99941 2.32939 3.65254C1.91689 4.68379 2.02001 7.09004 2.02001 8.19004C2.02001 9.32441 1.91689 11.7307 2.32939 12.7275C2.60439 13.415 3.12001 13.9307 3.80751 14.2057C4.80439 14.6182 7.21064 14.515 8.34501 14.515C9.44501 14.515 11.8513 14.6182 12.8825 14.2057C13.5356 13.9307 14.0856 13.415 14.3263 12.7275Z" fill="white"/>
</svg>
