<svg width="16" height="16" viewBox="0 0 16 16" fill="none" xmlns="http://www.w3.org/2000/svg">
<path d="M14.7651 0.490039C15.3495 0.490039 15.8651 1.00566 15.8651 1.62441V14.79C15.8651 15.4088 15.3495 15.89 14.7651 15.89H1.53071C0.946332 15.89 0.465082 15.4088 0.465082 14.79V1.62441C0.465082 1.00566 0.946332 0.490039 1.53071 0.490039H14.7651ZM5.10571 13.69V6.36816H2.83696V13.69H5.10571ZM3.97133 5.33691C4.69321 5.33691 5.27758 4.75254 5.27758 4.03066C5.27758 3.30879 4.69321 2.69004 3.97133 2.69004C3.21508 2.69004 2.63071 3.30879 2.63071 4.03066C2.63071 4.75254 3.21508 5.33691 3.97133 5.33691ZM13.6651 13.69V9.66816C13.6651 7.70879 13.2182 6.16191 10.9151 6.16191C9.81508 6.16191 9.05883 6.78066 8.74946 7.36504H8.71508V6.36816H6.54946V13.69H8.81821V10.0807C8.81821 9.11816 8.99008 8.19004 10.1932 8.19004C11.362 8.19004 11.362 9.29004 11.362 10.115V13.69H13.6651Z" fill="white"/>
</svg>
