<svg width="44" height="44" viewBox="0 0 44 44" fill="none" xmlns="http://www.w3.org/2000/svg">
<path d="M35.2283 8.80273H8.77163C7.57654 8.80273 6.60773 9.77155 6.60773 10.9666V11.0337C6.60773 12.2288 7.57654 13.1976 8.77163 13.1976H35.2283C36.4234 13.1976 37.3923 12.2288 37.3923 11.0337V10.9666C37.3923 9.77155 36.4234 8.80273 35.2283 8.80273Z" fill="white"/>
<path d="M35.2283 19.8027H8.77163C7.57654 19.8027 6.60773 20.7715 6.60773 21.9666V22.0337C6.60773 23.2288 7.57654 24.1976 8.77163 24.1976H35.2283C36.4234 24.1976 37.3923 23.2288 37.3923 22.0337V21.9666C37.3923 20.7715 36.4234 19.8027 35.2283 19.8027Z" fill="white"/>
<path d="M35.2482 30.8042H21.9536C20.7723 30.8042 19.8146 31.7619 19.8146 32.9432V33.0549C19.8146 34.2362 20.7723 35.1939 21.9536 35.1939H35.2482C36.4295 35.1939 37.3871 34.2362 37.3871 33.0549V32.9432C37.3871 31.7619 36.4295 30.8042 35.2482 30.8042Z" fill="white"/>
</svg>
