<svg width="70" height="55" viewBox="0 0 70 55" fill="none" xmlns="http://www.w3.org/2000/svg">
<g clip-path="url(#clip0_554_81)">
<path d="M69.9986 7.93577C70.0105 7.52193 69.8888 7.28702 69.5225 7.08132C67.0087 5.67062 64.3625 4.58735 61.6304 3.72073C54.2715 1.38499 46.7038 0.382044 39.0324 0.0814049C33.382 -0.141336 27.7471 0.0887078 22.1325 0.791012C17.9173 1.31804 13.7547 2.11042 9.67321 3.31906C6.46504 4.26845 3.35112 5.45762 0.419734 7.1154C0.09999 7.29675 -0.0085797 7.50124 -0.000228188 7.86517C0.0212471 8.92775 0.00693025 9.99156 0.00812333 11.0554C0.0093164 11.2172 0.0248264 11.3791 0.035564 11.6031H3.5253V41.6062H0.0439155V51.3167C0.194243 51.3277 0.311164 51.3423 0.428085 51.3423C5.91026 51.3435 11.3924 51.3398 16.8746 51.3508C17.2337 51.3508 17.3232 51.2339 17.322 50.8822C17.3101 47.9184 17.316 44.9546 17.3137 41.9908C17.3137 41.874 17.2946 41.7571 17.2791 41.5818H11.6143V18.8574H11.5988V14.7044H11.5941V11.6238H58.3888V14.7044H58.3566V15.9776H58.3959V41.594H52.7169V51.3143H69.9616V41.5904H66.4587V11.586H69.9664C69.9759 11.3621 69.989 11.199 69.989 11.0359C69.9914 10.0025 69.9711 8.96792 69.9986 7.93577ZM7.5567 29.286C6.71916 28.4316 5.78856 27.4846 4.86632 26.545C5.73965 25.6577 6.66428 24.7192 7.55431 23.8149C8.44673 24.7265 9.36659 25.6686 10.2351 26.5547C9.36778 27.4384 8.43957 28.3866 7.5567 29.286ZM7.62828 31.3248C8.48968 32.2133 9.41074 33.1603 10.2972 34.0731C9.39403 34.9945 8.46344 35.9439 7.56147 36.8629C6.6786 35.9634 5.75396 35.0225 4.87586 34.1279C5.76232 33.226 6.69411 32.2766 7.62828 31.3248ZM4.86513 19.0813C5.74681 18.1819 6.6786 17.2312 7.58295 16.3099C8.47059 17.2154 9.39523 18.1563 10.2841 19.0619C9.38568 19.9711 8.4515 20.9168 7.55431 21.8248C6.69649 20.9485 5.7647 19.9991 4.86513 19.0813ZM8.52786 22.8777C9.13991 22.2545 9.77224 21.6106 10.3914 20.9801V24.774C9.73525 24.1058 9.1065 23.4668 8.52786 22.8777ZM10.3867 17.1424C9.81041 16.5472 9.18524 15.9021 8.59348 15.2911C9.14229 14.7312 9.76627 14.0946 10.3867 13.4605V17.1424ZM10.1767 11.6128C9.3141 12.4904 8.40975 13.4118 7.54596 14.2918C6.73109 13.458 5.816 12.5233 4.92478 11.6128H10.1767ZM4.76133 13.5092C5.35786 14.1129 5.99258 14.7543 6.59628 15.3666C6.0236 15.9532 5.39843 16.5935 4.76133 17.2446V13.5092ZM4.7482 21.0154C5.34355 21.6191 5.97468 22.2618 6.56287 22.8594C6.00212 23.4254 5.36741 24.0656 4.7482 24.69V21.0154ZM4.74582 28.5168C5.34235 29.1193 5.97707 29.7583 6.56764 30.3547C5.99974 30.9316 5.36502 31.5755 4.74582 32.2048V28.5168ZM4.7494 36.0401C5.33042 36.6341 5.95798 37.2755 6.55452 37.8853C5.99616 38.4549 5.37218 39.0915 4.7494 39.7269V36.0401ZM4.89137 41.5624C5.79453 40.6434 6.70246 39.7208 7.57817 38.831C8.43599 39.7086 9.34631 40.6397 10.2483 41.5624H4.89137ZM10.3831 39.733C9.75553 39.0903 9.13156 38.4513 8.54456 37.85C9.12559 37.2548 9.75673 36.6097 10.3831 35.9683V39.733ZM10.4022 32.1172C9.83308 31.5354 9.20433 30.8927 8.61615 30.2926C9.13275 29.7644 9.76627 29.1169 10.4022 28.4669V32.1172ZM62.4142 29.3396C61.5421 28.4462 60.6151 27.4956 59.7179 26.5766C60.596 25.6808 61.5182 24.7399 62.4357 23.8027C63.3353 24.7192 64.2587 25.6589 65.144 26.5596C64.2456 27.4749 63.315 28.4231 62.4142 29.3396ZM62.4345 31.3224C63.3305 32.2243 64.2682 33.1688 65.1845 34.0914C64.2718 35.0201 63.3484 35.9622 62.4393 36.8885C61.5445 35.9585 60.621 35.0006 59.7107 34.0537C60.5876 33.1749 61.5278 32.2316 62.4345 31.3224ZM62.4345 21.8808C61.5516 20.957 60.6342 19.9954 59.7298 19.0497C60.5936 18.1794 61.5302 17.2361 62.4417 16.3172C63.3305 17.2179 64.2647 18.166 65.1702 19.085C64.2647 20.01 63.3424 20.9521 62.4345 21.8808ZM63.4128 15.3519C63.9974 14.7628 64.6345 14.1202 65.243 13.5055V17.2142C64.6286 16.5886 64.0034 15.952 63.4128 15.3519ZM65.0939 11.6201C64.2026 12.5293 63.2947 13.4568 62.4178 14.3539C61.5588 13.4751 60.6497 12.5452 59.7453 11.6201H65.0939ZM59.6117 13.4264C60.2548 14.0812 60.8811 14.719 61.4705 15.3179C60.874 15.9338 60.2464 16.5825 59.6117 17.2361V13.4264ZM59.595 21.0361C60.1808 21.6374 60.8095 22.2825 61.4085 22.8984C60.8799 23.4351 60.2452 24.0814 59.595 24.7436V21.0361ZM59.595 28.5424C60.176 29.1351 60.8083 29.7766 61.4037 30.3827C60.8704 30.9243 60.2369 31.5694 59.595 32.2231V28.5424ZM59.5986 36.0632C60.17 36.6487 60.7952 37.2901 61.3894 37.8987C60.8716 38.4221 60.2369 39.0635 59.5986 39.7086V36.0632ZM59.6857 41.5392C60.5996 40.6045 61.5015 39.6818 62.3534 38.8103C63.2529 39.7257 64.1633 40.6519 65.0342 41.5392H59.6857ZM65.2478 39.6173C64.6751 39.0453 64.0392 38.4099 63.4319 37.8038C63.9998 37.2268 64.625 36.5915 65.2478 35.9573V39.6173ZM65.2525 32.1549C64.6548 31.5475 64.0153 30.8988 63.4343 30.3085C64.0106 29.7279 64.6381 29.0937 65.2525 28.473V32.1549ZM65.2525 24.6426C64.662 24.0437 64.032 23.4047 63.4367 22.801C64.0082 22.2253 64.6369 21.5936 65.2525 20.9752V24.6426Z" fill="white"/>
<path d="M53.4807 18.367C53.3817 18.3062 53.2576 18.1796 53.2552 18.081C53.2349 17.386 53.2445 16.691 53.2445 15.9777H57.6803V14.7046H12.2755V15.9729H16.7543C16.7543 16.6009 16.7364 17.1913 16.7615 17.7804C16.7758 18.1066 16.6851 18.2855 16.3916 18.4559C15.3477 19.0608 15.1425 20.564 16.0325 21.3783C16.6911 21.9796 17.4594 22.4543 18.2063 23.0056C18.9305 21.9504 19.6189 20.9462 20.3383 19.8994C19.5986 19.3822 18.8875 18.888 18.1824 18.3865C18.0822 18.3147 17.9319 18.21 17.9295 18.1175C17.908 17.4091 17.9176 16.6995 17.9176 15.9704H52.0836C52.0836 16.6387 52.1027 17.2752 52.0705 17.9094C52.0621 18.0761 51.9309 18.2867 51.7937 18.3889C51.1017 18.905 50.3882 19.3907 49.6617 19.9019C50.3871 20.9584 51.0755 21.9613 51.7853 22.9947C52.4177 22.5431 53.0166 22.122 53.6083 21.6923C54.8766 20.7746 54.811 19.1838 53.4807 18.367Z" fill="#F16650"/>
<path d="M51.4417 55H18.5773V41.6258H51.4417V55Z" fill="white"/>
<path d="M20.6401 40.3307H14.0174V29.4505H20.6401V40.3307ZM15.3954 37.1101C15.3918 38.2287 16.2544 39.1124 17.3449 39.1063C18.4103 39.1014 19.2717 38.2202 19.2765 37.1308C19.28 36.0341 18.4342 35.1529 17.3664 35.1407C16.2628 35.1286 15.4002 35.9903 15.3966 37.1089L15.3954 37.1101ZM17.3306 30.6774C16.4596 30.6774 15.7724 31.37 15.7652 32.2536C15.7581 33.1568 16.4596 33.8846 17.3353 33.8834C18.1884 33.8822 18.8971 33.1665 18.9066 32.295C18.9162 31.3943 18.2182 30.6774 17.3306 30.6774Z" fill="#F16650"/>
<path d="M55.9719 40.3332H49.3539V29.4542H55.9719V40.3332ZM54.6022 37.1126C54.5986 35.9928 53.7384 35.1298 52.636 35.1408C51.567 35.1517 50.72 36.0305 50.7223 37.1272C50.7247 38.2153 51.5849 39.0978 52.6503 39.1063C53.7396 39.1148 54.6058 38.2299 54.6034 37.1126H54.6022ZM52.6754 30.6762C51.7854 30.6725 51.0838 31.3846 51.0898 32.2853C51.0958 33.1568 51.7997 33.8761 52.6527 33.8822C53.5273 33.8895 54.2347 33.1629 54.2312 32.2622C54.2276 31.3748 53.5451 30.6798 52.6754 30.6762Z" fill="#F16650"/>
<path d="M17.3175 35.9197C17.9689 35.91 18.5237 36.4675 18.5189 37.1259C18.5141 37.771 17.9856 38.3102 17.3485 38.3188C16.6911 38.3273 16.1459 37.7796 16.1507 37.1126C16.1542 36.4638 16.6792 35.9283 17.3175 35.9185V35.9197Z" fill="#F16650"/>
<path d="M18.1359 32.2841C18.1287 32.7332 17.7744 33.0874 17.3318 33.0874C16.8736 33.0874 16.5062 32.6979 16.5276 32.2366C16.5479 31.7972 16.9309 31.4333 17.3568 31.4491C17.7911 31.4637 18.1431 31.8422 18.1359 32.2853V32.2841Z" fill="#F16650"/>
<path d="M52.6504 38.3187C52.0144 38.3102 51.4847 37.7722 51.4799 37.1271C51.4752 36.4687 52.03 35.9112 52.6814 35.9197C53.3197 35.9282 53.8434 36.4638 53.8482 37.1125C53.853 37.7795 53.3101 38.3273 52.6515 38.3187H52.6504Z" fill="#F16650"/>
<path d="M52.6813 31.4479C53.1108 31.4564 53.4747 31.8362 53.4723 32.2744C53.47 32.7381 53.0906 33.1032 52.63 33.085C52.1898 33.0667 51.8498 32.6943 51.8641 32.2451C51.8784 31.8033 52.2494 31.4394 52.6813 31.4479Z" fill="#F16650"/>
</g>
<defs>
<clipPath id="clip0_554_81">
<rect width="70" height="55" fill="white"/>
</clipPath>
</defs>
</svg>
