<svg width="17" height="18" viewBox="0 0 17 18" fill="none" xmlns="http://www.w3.org/2000/svg">
<path d="M14.4488 2.875C16.0238 4.45 16.9988 6.5125 16.9988 8.7625C16.9988 13.3375 13.1738 17.0875 8.56125 17.0875C7.17375 17.0875 5.82375 16.7125 4.58625 16.075L0.19875 17.2L1.36125 12.8875C0.64875 11.65 0.23625 10.225 0.23625 8.725C0.23625 4.15 3.98625 0.399999 8.56125 0.399999C10.8112 0.399999 12.9113 1.3 14.4488 2.875ZM8.56125 15.6625C12.3863 15.6625 15.5738 12.55 15.5738 8.7625C15.5738 6.8875 14.7863 5.1625 13.4738 3.85C12.1613 2.5375 10.4362 1.825 8.59875 1.825C4.77375 1.825 1.66125 4.9375 1.66125 8.725C1.66125 10.0375 2.03625 11.3125 2.71125 12.4375L2.89875 12.7L2.18625 15.25L4.81125 14.5375L5.03625 14.6875C6.12375 15.325 7.32375 15.6625 8.56125 15.6625ZM12.3863 10.4875C12.5738 10.6 12.7238 10.6375 12.7613 10.75C12.8363 10.825 12.8363 11.2375 12.6488 11.725C12.4613 12.2125 11.6362 12.6625 11.2612 12.7C10.5862 12.8125 10.0612 12.775 8.74875 12.175C6.64875 11.275 5.29875 9.175 5.18625 9.0625C5.07375 8.9125 4.36125 7.9375 4.36125 6.8875C4.36125 5.875 4.88625 5.3875 5.07375 5.1625C5.26125 4.9375 5.48625 4.9 5.63625 4.9C5.74875 4.9 5.89875 4.9 6.01125 4.9C6.16125 4.9 6.31125 4.8625 6.49875 5.275C6.64875 5.6875 7.09875 6.7 7.13625 6.8125C7.17375 6.925 7.21125 7.0375 7.13625 7.1875C6.76125 7.975 6.31125 7.9375 6.53625 8.3125C7.36125 9.7 8.14875 10.1875 9.38625 10.7875C9.57375 10.9 9.68625 10.8625 9.83625 10.75C9.94875 10.6 10.3612 10.1125 10.4737 9.925C10.6237 9.7 10.7737 9.7375 10.9612 9.8125C11.1487 9.8875 12.1613 10.375 12.3863 10.4875Z" fill="white"/>
</svg>
