<svg width="20" height="14" viewBox="0 0 20 14" fill="none" xmlns="http://www.w3.org/2000/svg">
<path d="M18.9105 2.68691C19.323 4.13066 19.323 7.22441 19.323 7.22441C19.323 7.22441 19.323 10.2838 18.9105 11.7619C18.7043 12.5869 18.0511 13.2057 17.2605 13.4119C15.7824 13.79 9.93863 13.79 9.93863 13.79C9.93863 13.79 4.06051 13.79 2.58238 13.4119C1.79176 13.2057 1.13863 12.5869 0.932382 11.7619C0.519882 10.2838 0.519882 7.22441 0.519882 7.22441C0.519882 7.22441 0.519882 4.13066 0.932382 2.68691C1.13863 1.86191 1.79176 1.20879 2.58238 1.00254C4.06051 0.590039 9.93863 0.590039 9.93863 0.590039C9.93863 0.590039 15.7824 0.590039 17.2605 1.00254C18.0511 1.20879 18.7043 1.86191 18.9105 2.68691ZM8.01363 10.0088L12.8949 7.22441L8.01363 4.44004V10.0088Z" fill="white"/>
</svg>
